<svg width="37" height="37" viewBox="0 0 37 37" fill="none" xmlns="http://www.w3.org/2000/svg">
<circle cx="18.5" cy="18.5" r="18.5" fill="white"/>
<path d="M29.0046 23.4908V23.9278C28.89 24.2511 28.713 24.5201 28.3921 24.6718C28.3695 24.6908 28.3513 24.7145 28.3387 24.7415C28.3261 24.7684 28.3195 24.7978 28.3194 24.8276C28.3156 25.8293 28.3156 26.8312 28.3194 27.8333C28.3195 27.8631 28.3261 27.8925 28.3388 27.9193C28.3515 27.9462 28.3699 27.9698 28.3927 27.9885C28.7135 28.1402 28.8889 28.4098 29.0046 28.733V29.173C28.8241 29.6865 28.501 30.0027 27.9309 30.0027C22.1449 30.0027 16.3584 30.0027 10.5716 30.0027C9.7929 29.9971 9.03702 29.7345 8.41726 29.2544C7.7975 28.7742 7.34727 28.1024 7.13406 27.3396C7.08307 27.1523 7.04469 26.9609 7 26.7719V25.8966C7.01654 25.8568 7.03014 25.8159 7.04068 25.7741C7.28417 24.3859 8.05646 23.4342 9.33235 22.8962L9.48245 22.8297C9.47743 22.8185 9.47149 22.8078 9.46469 22.7976C9.44292 22.7783 9.42057 22.7602 9.3988 22.7392C8.56005 22.0099 8.21229 21.0832 8.43745 19.9886C8.6586 18.9138 9.31917 18.1797 10.367 17.888C10.8196 17.7643 11.3146 17.7963 11.7913 17.7712C12.0233 17.7578 12.2577 17.7712 12.4874 17.7712C12.4933 17.7402 12.4975 17.7088 12.5 17.6773C12.5 16.3236 12.5 14.9692 12.5052 13.6155C12.5052 13.4685 12.4295 13.4405 12.3247 13.3955C11.1105 12.9042 9.89724 12.4106 8.68495 11.9146C8.6311 11.893 8.58011 11.8626 8.50505 11.8247C8.58068 11.7891 8.62479 11.7664 8.6712 11.7477C11.7268 10.5056 14.7842 9.26565 17.8436 8.02783C17.9683 7.98926 18.1022 7.99565 18.2229 8.04593C20.9091 9.13125 23.5936 10.2205 26.2764 11.3136C26.6774 11.477 27.0784 11.6421 27.5288 11.8276L24.6871 12.9865C24.9558 13.0915 25.1792 13.1884 25.409 13.2654C25.5327 13.3068 25.5677 13.3739 25.5654 13.4988C25.5573 13.8915 25.5654 14.2848 25.5602 14.6781C25.5602 14.7948 25.5877 14.8531 25.7011 14.9051C26.4425 15.2487 26.6482 16.1263 26.1595 16.7904C26.1039 16.8696 26.0782 16.9665 26.0873 17.0635C26.2019 17.7952 26.3279 18.5222 26.4482 19.2545C26.5187 19.6822 26.584 20.1105 26.6568 20.5686H25.5619C25.5619 20.7979 25.5562 21.0015 25.5659 21.2046C25.5689 21.2341 25.578 21.2626 25.5927 21.2882C25.6075 21.3138 25.6274 21.3358 25.6513 21.3528C26.1589 21.6376 26.3302 22.0711 26.2076 22.6593C26.7805 22.6593 27.342 22.6593 27.9057 22.6593C28.0125 22.6576 28.1192 22.6679 28.2237 22.6902C28.6471 22.7952 28.8711 23.0993 29.0046 23.4908ZM27.6204 26.1463H21.4547V25.4525H27.6141V24.757H10.6965C10.6317 24.757 10.5676 24.757 10.5028 24.757C9.50136 24.8095 8.81901 25.7437 9.06422 26.7246C9.24412 27.4452 9.8663 27.9004 10.6718 27.9004H27.6204V26.1463ZM10.3653 11.823C10.4679 11.8697 10.5177 11.8947 10.5687 11.9157C12.9944 12.9034 15.4209 13.8894 17.8482 14.8735C17.952 14.9109 18.0652 14.9109 18.169 14.8735C19.6372 14.2842 21.1033 13.6898 22.5673 13.0904C22.6166 13.0705 22.6624 13.0408 22.7472 12.9964L17.8774 11.1093C17.9599 10.8888 18.0378 10.6816 18.122 10.4576C18.2108 10.4879 18.2842 10.5112 18.3564 10.5387C20.0904 11.2101 21.8254 11.8803 23.5613 12.5494C23.6649 12.5845 23.7768 12.5845 23.8804 12.5494C24.1898 12.4392 24.4923 12.3067 24.7971 12.1818C25.0652 12.0727 25.3328 11.9624 25.6439 11.8317C25.5367 11.7839 25.4754 11.7541 25.4118 11.7284C22.9987 10.7454 20.5846 9.76455 18.1696 8.78581C18.0518 8.74844 17.925 8.75338 17.8104 8.79981C16.1042 9.48485 14.3998 10.1751 12.6971 10.8707C11.938 11.1794 11.1783 11.4927 10.3653 11.823ZM22.8177 13.7573C22.7254 13.79 22.6515 13.8121 22.5799 13.8413C21.1092 14.4383 19.6391 15.0387 18.1656 15.6292C18.0625 15.6663 17.9501 15.6663 17.847 15.6292C16.9223 15.2628 16.0028 14.8852 15.081 14.5112L13.2041 13.7491C13.1984 13.7981 13.1921 13.825 13.1921 13.8518C13.1921 15.1834 13.1892 16.515 13.1961 17.8465C13.205 17.936 13.2457 18.019 13.3107 18.0799C13.7851 18.5281 14.3505 18.8239 14.9584 19.0275C16.7493 19.6291 18.5678 19.6548 20.3936 19.2283C21.2227 19.0345 21.9944 18.6979 22.655 18.133C22.7109 18.09 22.7555 18.0337 22.785 17.969C22.8145 17.9043 22.8279 17.8331 22.824 17.7619C22.8154 16.6923 22.8194 15.6228 22.8194 14.5526L22.8177 13.7573ZM19.1372 24.0597H27.7728C27.8444 24.0626 27.9162 24.0615 27.9877 24.0562C28.074 24.049 28.1548 24.01 28.215 23.9465C28.2752 23.8831 28.3106 23.7995 28.3148 23.7114C28.312 23.6231 28.2775 23.539 28.2178 23.475C28.1581 23.411 28.0775 23.3716 27.9911 23.3642C27.9126 23.3577 27.8338 23.3561 27.7551 23.3595C22.1122 23.3595 16.4696 23.3595 10.8271 23.3595C10.6197 23.3599 10.4125 23.3726 10.2066 23.3974C8.57323 23.5906 7.39932 25.2816 7.75568 26.9212C8.06505 28.3479 9.22406 29.299 10.6713 29.2996C16.3924 29.3019 22.1137 29.3019 27.8353 29.2996C27.8782 29.2996 27.9218 29.2996 27.9642 29.2996C28.167 29.2809 28.3125 29.1368 28.3148 28.9542C28.3171 28.7715 28.1727 28.6216 27.971 28.6041C27.9 28.5977 27.8278 28.6041 27.7562 28.6041C22.0209 28.6041 16.2853 28.6041 10.5492 28.6041C10.212 28.6057 9.87888 28.5292 9.57502 28.3803C9.27115 28.2314 9.00454 28.0141 8.79538 27.7447C8.58621 27.4753 8.43997 27.161 8.36773 26.8256C8.29549 26.4901 8.29915 26.1423 8.37844 25.8085C8.49097 25.3138 8.76402 24.8721 9.15347 24.555C9.54291 24.2379 10.026 24.0638 10.5246 24.0609C13.3949 24.0574 16.2658 24.057 19.1372 24.0597ZM23.8924 19.8795C23.8492 19.8724 23.8056 19.8675 23.7618 19.8649C22.8383 19.8649 21.9153 19.8649 20.9923 19.8649C20.8573 19.8644 20.7227 19.8801 20.5913 19.9116C19.2907 20.2464 17.9382 20.3174 16.6107 20.1205C15.6138 19.9682 14.6244 19.7978 13.6115 19.8614C13.4046 19.8742 13.1967 19.8614 12.9887 19.8614C12.3808 19.8614 11.7724 19.8555 11.164 19.8614C10.6483 19.8678 10.3212 20.334 10.4925 20.8032C10.5985 21.0949 10.8615 21.2589 11.2276 21.2589C15.7146 21.2589 20.2025 21.2589 24.6911 21.2589C24.7524 21.2589 24.8143 21.2513 24.8681 21.2472V20.547H23.7951C23.8248 20.3171 23.8575 20.1029 23.8907 19.8795H23.8924ZM13.5152 19.167C13.2379 18.9336 12.9835 18.7154 12.724 18.5035C12.6824 18.4772 12.6337 18.4648 12.5848 18.468C12.0766 18.468 11.5673 18.4499 11.0597 18.4732C10.7476 18.4832 10.4418 18.5656 10.1656 18.7141C9.88948 18.8625 9.65021 19.0732 9.46603 19.33C9.28185 19.5869 9.15762 19.8831 9.10279 20.1962C9.04795 20.5093 9.06396 20.8311 9.14958 21.1369C9.40109 22.0606 10.2186 22.661 11.2356 22.661C15.8468 22.661 20.4586 22.661 25.0709 22.661C25.1354 22.6653 25.2001 22.6627 25.264 22.6535C25.4456 22.6138 25.5625 22.4971 25.5591 22.3034C25.5556 22.1096 25.437 21.9976 25.2537 21.9649C25.1753 21.956 25.0964 21.954 25.0177 21.9591C20.3915 21.9591 15.7652 21.9591 11.1387 21.9591C10.9578 21.9624 10.7781 21.929 10.61 21.8607C10.442 21.7924 10.289 21.6906 10.16 21.5613C10.0311 21.432 9.92873 21.2779 9.85902 21.1078C9.7893 20.9377 9.7536 20.7552 9.75401 20.5709C9.75401 19.7785 10.3539 19.1705 11.1439 19.1658C11.7019 19.1658 12.2611 19.1658 12.8191 19.1658L13.5152 19.167ZM24.2408 17.7625C24.2843 17.4964 24.3324 17.2373 24.3657 16.9695C24.3616 16.9066 24.3368 16.847 24.2952 16.8003C23.7922 16.1258 23.999 15.2622 24.7472 14.8946C24.7803 14.876 24.809 14.8503 24.8313 14.8193C24.8536 14.7882 24.8689 14.7526 24.8761 14.7148C24.8896 14.4604 24.8896 14.2054 24.8761 13.951C24.8712 13.9155 24.8584 13.8815 24.8385 13.8519C24.8186 13.8222 24.7923 13.7977 24.7616 13.7801C24.4591 13.6505 24.152 13.5326 23.8449 13.4183C23.6283 13.3383 23.504 13.4305 23.504 13.6622C23.504 14.965 23.504 16.2681 23.504 17.5717C23.504 17.6347 23.5115 17.6971 23.516 17.7637L24.2408 17.7625ZM25.8449 19.8538C25.7017 18.9785 25.5585 18.1149 25.4193 17.256H25.032C24.8905 18.1243 24.7501 18.9814 24.6074 19.8538H25.8449ZM25.7401 16.0301C25.7379 15.8908 25.6831 15.7578 25.5871 15.6586C25.491 15.5595 25.3612 15.5019 25.2245 15.4979C25.0913 15.5021 24.9645 15.5574 24.8695 15.6525C24.7745 15.7477 24.7181 15.8758 24.7117 16.0114C24.7136 16.1507 24.7683 16.2839 24.8644 16.3831C24.9605 16.4823 25.0906 16.5398 25.2273 16.5436C25.36 16.5386 25.4861 16.4831 25.5805 16.388C25.6749 16.2929 25.7309 16.1652 25.7372 16.0301H25.7401ZM22.5083 19.1565H24.0156C24.0517 18.9289 24.0867 18.7101 24.1251 18.4674C23.8604 18.4674 23.6192 18.4639 23.3803 18.4674C23.3324 18.4763 23.2881 18.4995 23.2531 18.5339C23.0044 18.7375 22.7638 18.9406 22.5054 19.1565H22.5083Z" fill="#F1400B"/>
<path d="M20.0518 26.5205V27.1927H10.4561V26.5205H20.0518Z" fill="#F1400B"/>
</svg>
