<svg width="37" height="37" viewBox="0 0 37 37" fill="none" xmlns="http://www.w3.org/2000/svg">
<circle cx="18.5" cy="18.5" r="18.5" fill="white"/>
<g clip-path="url(#clip0_879_179)">
<path d="M10.7783 26.1876C10.328 26.1528 9.91891 26.0237 9.56587 25.7382C9.19573 25.4383 8.94683 25.0639 8.85069 24.5953C8.81811 24.4346 8.76523 24.3521 8.57883 24.3109C7.78514 24.1352 7.26759 23.6419 7.04006 22.8557C7.01377 22.7518 7.00208 22.6447 7.00534 22.5376C7.00534 19.3647 7.01015 16.1914 7 13.0186C7 12.1445 7.35465 11.4472 7.9614 10.8644C8.56815 10.2817 9.31697 10.0038 10.1657 10.0043C14.4546 10.0043 18.7435 10.0129 23.0324 10C24.0627 9.9968 24.9552 10.6963 25.1293 11.6801C25.1399 11.7182 25.1593 11.7532 25.1859 11.7824C25.2126 11.8115 25.2457 11.8339 25.2826 11.8478C26.2146 12.039 26.7605 12.611 26.9661 13.5295C26.9725 13.5568 26.98 13.5831 26.9731 13.5558C27.3325 13.6522 27.6834 13.6918 27.9836 13.837C28.656 14.1621 28.9856 14.7394 28.9941 15.4855C29.0043 16.3424 28.9968 17.1994 28.9968 18.0563C28.9968 20.7342 28.9968 23.4107 28.9968 26.0858C28.9968 27.0097 28.476 27.7012 27.5916 27.9363C27.3894 27.9831 27.1821 28.0044 26.9747 27.9995C22.2553 28.0027 17.536 28.0027 12.817 27.9995C11.6452 27.9995 10.9375 27.3793 10.7783 26.1876ZM22.7888 23.4561C22.8508 23.5225 22.9037 23.5803 22.9581 23.6366C23.2124 23.9001 23.473 24.1582 23.7209 24.4277C23.9852 24.7142 23.8811 25.1084 23.528 25.1871C23.3272 25.2321 23.1851 25.1228 23.0559 24.9895C22.5763 24.4942 22.0968 23.9985 21.6175 23.5022C20.1199 21.9515 18.6221 20.4013 17.1241 18.8517C16.8244 18.541 16.5029 18.4998 16.2161 18.7542C14.7291 20.0646 13.2454 21.3793 11.7648 22.6982C11.7007 22.7606 11.6626 22.845 11.658 22.9344C11.6509 23.9924 11.65 25.0504 11.6553 26.1083C11.658 26.5936 11.9224 26.9594 12.3593 27.0772C12.5058 27.1096 12.6559 27.1228 12.8058 27.1163C16.7938 27.1163 20.7818 27.1163 24.7698 27.1163C25.5518 27.1163 26.3337 27.1211 27.1157 27.1163C27.7288 27.1109 28.1305 26.7167 28.1342 26.1051C28.1428 25.3205 28.1385 24.5358 28.1342 23.7517C28.1328 23.7148 28.1242 23.6786 28.1088 23.645C28.0934 23.6115 28.0715 23.5813 28.0445 23.5562C27.2928 22.9789 26.5383 22.4058 25.7809 21.837C25.5427 21.6571 25.2858 21.6372 25.0433 21.8118C24.2918 22.3512 23.5478 22.8996 22.7899 23.4561H22.7888ZM11.6532 21.6222C11.7258 21.5607 11.753 21.5382 11.7798 21.5151C13.026 20.4111 14.2723 19.3069 15.5185 18.2025C16.2839 17.5239 17.0674 17.5502 17.7741 18.2807C18.6935 19.2305 19.6123 20.1806 20.5306 21.1311L22.1687 22.8225C22.2339 22.778 22.2932 22.7389 22.3503 22.6977C23.045 22.1896 23.7394 21.6815 24.4334 21.1734C25.0914 20.6914 25.6997 20.6914 26.3481 21.1798C26.8705 21.5714 27.3897 21.9682 27.9104 22.3619C27.9745 22.4101 28.0413 22.4551 28.1331 22.5226V22.2848C28.1331 20.0614 28.1331 17.8383 28.1331 15.6156C28.1331 14.8856 27.7448 14.4963 27.0179 14.4963H12.7796C12.0383 14.4963 11.6537 14.8813 11.6537 15.6263C11.6537 17.5402 11.6537 19.454 11.6537 21.3678L11.6532 21.6222ZM24.2582 11.821C24.1578 11.2319 23.6771 10.8698 23.0148 10.8693C18.7465 10.8693 14.4786 10.8693 10.2111 10.8693C8.82238 10.8693 7.8252 11.8714 7.8236 13.266C7.82075 16.2457 7.82075 19.2248 7.8236 22.2034C7.82344 22.3399 7.83812 22.476 7.8674 22.6093C7.91739 22.8263 8.03134 23.0231 8.19443 23.1742C8.35751 23.3253 8.56218 23.4237 8.78179 23.4566V23.1765C8.78179 20.1397 8.7882 17.103 8.77859 14.0667C8.77431 12.7395 9.7934 11.7948 11.0293 11.814C12.6851 11.8398 14.3435 11.8205 16.0003 11.821C16.0791 11.8174 16.158 11.8203 16.2364 11.8296C16.3398 11.8458 16.4338 11.8995 16.5004 11.9806C16.5669 12.0617 16.6015 12.1644 16.5975 12.2694C16.5934 12.3743 16.5511 12.4741 16.4785 12.5498C16.406 12.6255 16.3082 12.6719 16.2038 12.6801C16.1253 12.687 16.0462 12.6838 15.9672 12.6838C14.3387 12.6838 12.7091 12.6972 11.0822 12.679C10.1742 12.6694 9.64705 13.289 9.65239 14.1101C9.67376 17.3911 9.66094 20.6727 9.66147 23.9537C9.66147 24.0688 9.66147 24.1845 9.67215 24.2991C9.72183 24.8492 10.265 25.3301 10.7938 25.2798V25.0248C10.7938 21.8734 10.7938 18.7217 10.7938 15.5696C10.7938 15.125 10.8963 14.7153 11.1709 14.3602C11.5747 13.8375 12.1146 13.6265 12.7663 13.627C17.1203 13.6324 21.4742 13.6324 25.8279 13.627H26.1014C26.0798 13.542 26.0526 13.4584 26.0202 13.3769C25.7788 12.8815 25.3648 12.6806 24.8323 12.6806C23.1613 12.6806 21.4901 12.6806 19.8186 12.6806C19.7396 12.6806 19.6584 12.6838 19.582 12.6763C19.4771 12.6703 19.3782 12.6248 19.3052 12.549C19.2321 12.4732 19.1902 12.3726 19.1879 12.2671C19.1836 12.1619 19.2182 12.0587 19.285 11.9774C19.3518 11.8961 19.4461 11.8423 19.55 11.8264C19.6283 11.8171 19.7073 11.8142 19.7861 11.8178H24.2571L24.2582 11.821Z" fill="#FF440D"/>
<path d="M25.5227 18.101C25.5214 18.4654 25.4125 18.8213 25.2097 19.1238C25.0069 19.4262 24.7193 19.6617 24.3832 19.8003C24.0471 19.939 23.6776 19.9748 23.3212 19.9031C22.9649 19.8313 22.6377 19.6554 22.381 19.3974C22.1243 19.1393 21.9496 18.8109 21.8789 18.4534C21.8082 18.0959 21.8447 17.7254 21.9838 17.3887C22.1229 17.052 22.3583 16.7641 22.6604 16.5615C22.9625 16.3588 23.3176 16.2504 23.6811 16.25C23.9233 16.25 24.1631 16.2979 24.3868 16.391C24.6105 16.4841 24.8137 16.6205 24.9848 16.7924C25.1559 16.9643 25.2914 17.1684 25.3837 17.393C25.476 17.6175 25.5233 17.8581 25.5227 18.101ZM23.6912 17.1241C23.4983 17.1217 23.309 17.177 23.1475 17.2827C22.9859 17.3885 22.8593 17.5401 22.7839 17.7181C22.7084 17.8962 22.6874 18.0927 22.7236 18.2828C22.7597 18.4728 22.8514 18.6478 22.987 18.7855C23.1226 18.9231 23.2959 19.0173 23.4849 19.056C23.674 19.0947 23.8702 19.0761 24.0487 19.0027C24.2273 18.9293 24.38 18.8043 24.4875 18.6437C24.595 18.483 24.6525 18.2939 24.6526 18.1005C24.6542 17.8432 24.5538 17.5958 24.3735 17.4127C24.1932 17.2296 23.9478 17.1258 23.6912 17.1241Z" fill="#FF440D"/>
<path d="M17.8879 12.6812C17.8318 12.6814 17.7762 12.6705 17.7242 12.6492C17.6723 12.6278 17.6251 12.5964 17.5853 12.5568C17.5048 12.4767 17.4594 12.3679 17.459 12.2543C17.4586 12.1407 17.5032 12.0315 17.583 11.9509C17.6628 11.8702 17.7713 11.8246 17.8847 11.8242C17.998 11.8238 18.1068 11.8685 18.1873 11.9486C18.2677 12.0286 18.3131 12.1374 18.3136 12.2511C18.314 12.3647 18.2694 12.4739 18.1895 12.5545C18.1097 12.6352 18.0012 12.6807 17.8879 12.6812Z" fill="#FF440D"/>
</g>
<defs>
<clipPath id="clip0_879_179">
<rect width="22" height="18" fill="white" transform="translate(7 10)"/>
</clipPath>
</defs>
</svg>
