<svg width="37" height="37" viewBox="0 0 37 37" fill="none" xmlns="http://www.w3.org/2000/svg">
<circle cx="18.5" cy="18.5" r="18.5" fill="white"/>
<g clip-path="url(#clip0_872_162)">
<path d="M11.8877 25.8422L11.8981 25.8468C11.9321 25.7978 11.9694 25.7511 12.0096 25.707L11.9591 25.7202C11.9365 25.7592 11.9127 25.7993 11.8877 25.8422Z" fill="#F1400B"/>
<path d="M10.1784 25.5035C10.1482 25.2847 10.1064 25.0676 10.0675 24.8396H10.6481C10.6103 24.8012 10.5726 24.7634 10.532 24.7279C10.4791 24.6872 10.4269 24.6448 10.3746 24.6025C10.3512 24.584 10.3328 24.5601 10.321 24.5329C10.3091 24.5058 10.3042 24.4761 10.3067 24.4467H10.0025L9.87244 23.6831C10.2788 23.6831 10.4315 23.5303 10.8217 23.5303C10.8591 23.4207 11.1551 23.4715 11.2298 23.3823C11.2454 23.3617 11.2651 23.3445 11.2876 23.3317C11.3102 23.3189 11.3352 23.3108 11.361 23.3079L11.368 23.2935C11.3293 23.2905 11.2905 23.2905 11.2519 23.2935C11.1747 23.305 11.1421 23.2712 11.1195 23.2013C11.0237 22.9034 10.9215 22.6079 10.8217 22.3117C10.7758 22.1765 10.7189 22.1398 10.5732 22.1364H10.3746L10.3427 22.0488C10.2405 21.7463 10.1378 21.444 10.0344 21.142C9.99262 21.0205 9.93572 20.9821 9.80742 20.9804H9.65357V18.2881C9.76968 18.2881 9.88231 18.2881 9.99378 18.2881C10.1621 18.2847 10.2289 18.2194 10.2289 18.055C10.2289 17.5688 10.2289 17.0825 10.2289 16.596C10.2289 16.4241 10.1656 16.3594 9.99088 16.3594H5.78002C5.59888 16.3594 5.53734 16.4207 5.53734 16.6011C5.53734 17.0811 5.53734 17.561 5.53734 18.0406C5.53734 18.224 5.60004 18.2864 5.78757 18.2881C5.89555 18.2881 6.00354 18.2881 6.11385 18.2881V20.9804H6.02386C5.80847 20.9804 5.77944 21.0022 5.71151 21.2021C5.62559 21.4553 5.54083 21.7085 5.4549 21.9611C5.39685 22.1358 5.39684 22.1358 5.20932 22.1364C5.04328 22.1364 4.99393 22.1714 4.94168 22.3254C4.85343 22.5844 4.76558 22.8435 4.6781 23.1028C4.61366 23.2912 4.61366 23.2912 4.41162 23.293C4.26648 23.293 4.21132 23.3319 4.1643 23.4688C4.07296 23.7361 3.9822 24.0046 3.89202 24.2742C3.83396 24.4461 3.83396 24.4461 3.64411 24.4489C3.48039 24.4489 3.4293 24.4856 3.37705 24.6403C3.26093 24.984 3.14482 25.3328 3.02407 25.676C2.95149 25.8782 3.05542 25.9979 3.25978 25.9973C5.75583 25.9939 8.25227 25.9939 10.7491 25.9973C10.7708 25.9465 10.7978 25.8981 10.8298 25.853C10.855 25.773 10.8715 25.6906 10.8791 25.6072C10.687 25.6072 10.4954 25.6072 10.3032 25.6072C10.2167 25.6101 10.1894 25.5854 10.1784 25.5035ZM9.74646 21.5286L9.94908 22.1335H9.61119C9.56822 21.8832 9.52642 21.6346 9.48404 21.3889C9.49428 21.3834 9.50522 21.3794 9.51655 21.3768C9.6913 21.3648 9.69131 21.3648 9.74646 21.5286ZM5.93677 17.8894V16.7546H9.82658V17.1258H6.60443C6.57424 17.1258 6.54637 17.1258 6.51502 17.1258C6.46257 17.1265 6.41241 17.1472 6.375 17.1835C6.33758 17.2197 6.31578 17.2689 6.31414 17.3206C6.31428 17.3467 6.31974 17.3726 6.33019 17.3966C6.34064 17.4206 6.35587 17.4423 6.37498 17.4605C6.3941 17.4786 6.4167 17.4927 6.44145 17.502C6.4662 17.5114 6.4926 17.5157 6.51908 17.5148C6.70777 17.5148 6.89587 17.5148 7.08456 17.5148H9.82368V17.8888L5.93677 17.8894ZM8.85819 18.9343C8.85819 18.7275 8.80013 18.6713 8.59577 18.6713H7.16642C6.96031 18.6713 6.904 18.7286 6.904 18.9343V20.9758H6.51908V18.2944H9.24775V20.9753H8.85935V18.9343H8.85819ZM7.01082 24.0594C7.03114 23.9374 7.05146 23.8165 7.07236 23.6899H8.69273C8.71421 23.8142 8.73395 23.9322 8.75543 24.0594H7.01082ZM8.84136 24.5606C8.85069 24.6537 8.86561 24.746 8.88606 24.8373H6.88194C6.89994 24.7228 6.91213 24.6082 6.94 24.5022C6.94522 24.4816 6.99805 24.461 7.03289 24.4604C7.29704 24.457 7.56178 24.4604 7.82594 24.4604C8.12377 24.4604 8.42102 24.4604 8.71827 24.4604C8.79433 24.4558 8.83555 24.4707 8.83961 24.5606H8.84136ZM7.30575 20.9776V19.0654H8.45992V20.9776H7.30575ZM8.36587 21.7469H7.39981C7.42129 21.6203 7.44103 21.5006 7.46135 21.3774H8.29852C8.31942 21.4943 8.3409 21.6168 8.36413 21.7469H8.36587ZM7.33304 22.1479H8.43147C8.45237 22.2705 8.47386 22.3942 8.4965 22.5236H7.26976C7.2895 22.397 7.30982 22.2756 7.3313 22.1473L7.33304 22.1479ZM8.50288 22.9195C8.51726 22.9214 8.53091 22.9269 8.54257 22.9354C8.55424 22.9439 8.56355 22.9552 8.56965 22.9682C8.59229 23.0718 8.60565 23.1778 8.62364 23.2901H7.14203C7.16003 23.1755 7.17338 23.0718 7.19602 22.9676C7.20229 22.9547 7.21174 22.9435 7.2235 22.9351C7.23526 22.9267 7.24897 22.9213 7.26337 22.9195C7.67557 22.9164 8.08816 22.9162 8.50114 22.9189L8.50288 22.9195ZM6.05869 21.4158C6.06571 21.4047 6.07514 21.3953 6.08628 21.3883C6.09743 21.3813 6.11001 21.3768 6.12314 21.3751C6.17592 21.3719 6.22885 21.3719 6.28163 21.3751C6.23809 21.634 6.19629 21.8826 6.15391 22.1358H5.81427C5.89555 21.8872 5.97451 21.6506 6.05695 21.4152L6.05869 21.4158ZM5.57682 25.5442C5.57178 25.5591 5.56303 25.5725 5.55136 25.5832C5.5397 25.594 5.5255 25.6016 5.51006 25.6055C4.8395 25.6055 4.16894 25.6055 3.49839 25.6055C3.49316 25.6055 3.48736 25.5998 3.47342 25.5917C3.55296 25.3569 3.63192 25.1197 3.71494 24.8843C3.72138 24.8729 3.73047 24.8631 3.74147 24.8559C3.75248 24.8486 3.76507 24.844 3.77822 24.8425C4.4122 24.8425 5.04618 24.8425 5.6941 24.8425C5.65346 25.0819 5.61746 25.3133 5.57508 25.5436L5.57682 25.5442ZM5.76202 24.4478H4.25255C4.2868 24.343 4.31873 24.2427 4.35182 24.1436C4.39653 24.0107 4.43949 23.8778 4.48942 23.7466C4.4959 23.7326 4.50546 23.7202 4.51741 23.7103C4.52936 23.7004 4.5434 23.6932 4.55851 23.6894C4.99742 23.6859 5.43691 23.6894 5.89381 23.6894C5.84504 23.9471 5.80266 24.1946 5.76028 24.4472L5.76202 24.4478ZM5.03283 23.2918C5.0694 23.183 5.10366 23.0827 5.13733 22.9819C5.18087 22.8525 5.22151 22.7218 5.26912 22.5935C5.27841 22.5672 5.31266 22.5317 5.33646 22.5317C5.5803 22.5271 5.82472 22.5288 6.08656 22.5288C6.04244 22.7912 6.00005 23.0403 5.95709 23.2918H5.03283ZM5.9658 25.6015C5.99831 25.4056 6.0285 25.2165 6.06043 25.0286C6.18352 24.2996 6.30679 23.5706 6.43026 22.8416C6.50921 22.373 6.58817 21.9038 6.67003 21.4353C6.6741 21.4123 6.70487 21.378 6.7246 21.378C6.83259 21.3722 6.94115 21.378 7.06017 21.378L6.34607 25.6066L5.9658 25.6015ZM6.7455 25.6015C6.76757 25.476 6.78789 25.3575 6.80879 25.2343H8.94992C8.97082 25.3575 8.99114 25.4755 9.0132 25.6015H6.7455ZM9.41263 25.6015C9.17518 24.1935 8.93773 22.7883 8.69853 21.3728C8.81465 21.3728 8.92612 21.3694 9.03468 21.3728C9.05442 21.3728 9.08519 21.4095 9.08926 21.433C9.17054 21.9015 9.24949 22.3701 9.32903 22.8393L9.69827 25.0258C9.7302 25.2142 9.76039 25.4033 9.7929 25.5986L9.41263 25.6015ZM9.68144 22.5334H10.4803L10.7334 23.2872H9.80974C9.76446 23.0426 9.72208 22.7934 9.68144 22.5334Z" fill="#F1400B"/>
<path d="M12.6094 25.7316C12.6558 25.7236 12.7023 25.7167 12.7493 25.7104C12.7458 25.699 12.7423 25.687 12.7377 25.6749C12.7087 25.5947 12.6796 25.5134 12.6518 25.4326C12.6504 25.5336 12.6361 25.6341 12.6094 25.7316Z" fill="#F1400B"/>
<path d="M24.253 25.7109C24.2388 25.7556 24.2364 25.8031 24.246 25.849C24.2617 25.8152 24.2779 25.782 24.2942 25.7487C24.2798 25.7369 24.266 25.7243 24.253 25.7109Z" fill="#F1400B"/>
<path d="M33.9757 25.6749C33.8631 25.3661 33.7638 25.0522 33.6581 24.7406C33.5618 24.4542 33.5612 24.4542 33.2518 24.4542C33.1803 24.4542 33.1565 24.4278 33.1356 24.3665C33.0358 24.0635 32.9319 23.7616 32.8279 23.4597C32.7867 23.3394 32.7275 23.2982 32.6015 23.2965C32.5619 23.2933 32.5221 23.2933 32.4825 23.2965C32.4053 23.3079 32.3728 23.2741 32.3501 23.2042C32.2543 22.9064 32.1522 22.6108 32.0523 22.3146C32.0064 22.1794 31.9495 22.1428 31.8038 22.1393H31.6053L31.5733 22.0517C31.4706 21.7492 31.369 21.4468 31.265 21.1449C31.2232 21.0235 31.1664 20.9851 31.038 20.9834H30.8842V18.291C31.0003 18.291 31.1129 18.291 31.2244 18.291C31.3928 18.2876 31.4595 18.2223 31.4595 18.0579C31.4595 17.5717 31.4595 17.0854 31.4595 16.5989C31.4595 16.427 31.3963 16.3623 31.2215 16.3623H27.0147C26.8336 16.3623 26.772 16.4236 26.772 16.604C26.772 17.0841 26.772 17.5639 26.772 18.0436C26.772 18.2269 26.8353 18.2893 27.0228 18.291C27.1308 18.291 27.2388 18.291 27.3491 18.291V20.9834H27.2586C27.0432 20.9834 27.0141 21.0051 26.9462 21.205C26.8603 21.4582 26.7755 21.7114 26.6896 21.964C26.6315 22.1388 26.6315 22.1388 26.444 22.1393C26.278 22.1393 26.2286 22.1743 26.1764 22.3284C26.0881 22.5873 26.0003 22.8464 25.9128 23.1057L25.9023 23.1355C25.9311 23.171 25.9481 23.2144 25.9511 23.2598C25.9511 23.2913 25.9546 23.3222 25.9558 23.3537C25.9667 23.3676 25.976 23.3826 25.9836 23.3984C26.0266 23.4904 26.1526 23.4215 26.1764 23.52C26.5189 23.52 26.7715 23.6848 27.125 23.6848C27.0803 23.9483 27.0379 24.1975 26.9956 24.4484H26.4429C26.4768 24.5573 26.4923 24.6709 26.4887 24.7847C26.4887 24.8042 26.4887 24.8231 26.4841 24.842H26.9282C26.8887 25.0837 26.8522 25.3151 26.8121 25.5454C26.8071 25.5603 26.7983 25.5737 26.7866 25.5845C26.775 25.5952 26.7608 25.6028 26.7453 25.6067H26.2896C26.3876 25.6596 26.4682 25.7392 26.5218 25.8358C26.5376 25.8599 26.5481 25.887 26.5525 25.9153C26.5569 25.9437 26.5552 25.9726 26.5474 26.0002C28.947 25.9979 31.3452 25.9979 33.7418 26.0002C33.9484 26.0002 34.0495 25.8765 33.9757 25.6749ZM30.9875 21.5287L31.1902 22.1336H30.8523C30.8093 21.8833 30.7675 21.6347 30.7251 21.3889C30.7354 21.3835 30.7463 21.3794 30.7576 21.3769C30.9295 21.3649 30.9295 21.3649 30.9875 21.5287ZM27.1779 17.8895V16.7547H31.0677V17.1259H27.8449C27.8153 17.1259 27.7869 17.1259 27.7561 17.1259C27.7043 17.1275 27.6551 17.1484 27.6185 17.1845C27.5818 17.2205 27.5604 17.269 27.5587 17.3201C27.5588 17.3462 27.5643 17.3721 27.5748 17.3961C27.5852 17.4201 27.6004 17.4418 27.6195 17.4599C27.6387 17.4781 27.6613 17.4922 27.686 17.5015C27.7108 17.5109 27.7372 17.5152 27.7636 17.5143C27.9523 17.5143 28.1404 17.5143 28.3291 17.5143H31.0682V17.8883L27.1779 17.8895ZM30.0993 18.9343C30.0993 18.7275 30.0412 18.6714 29.8363 18.6714H28.4075C28.2014 18.6714 28.1451 18.7287 28.1451 18.9343V20.9759H27.7602V18.2945H30.4888V20.9753H30.1004V18.9343H30.0993ZM28.2502 24.0595C28.2705 23.9375 28.2908 23.8166 28.3117 23.69H29.9321C29.9535 23.8143 29.9733 23.9323 29.9948 24.0595H28.2502ZM30.0807 24.5607C30.09 24.6537 30.1049 24.7461 30.1254 24.8374H28.1213C28.1393 24.7228 28.1515 24.6083 28.1793 24.5023C28.1846 24.4817 28.2374 24.461 28.2722 24.4605C28.5364 24.457 28.8011 24.4605 29.0653 24.4605C29.3631 24.4605 29.6604 24.4605 29.9576 24.4605C30.0325 24.4559 30.0737 24.4708 30.0778 24.5607H30.0807ZM28.5451 20.9776V19.0655H29.6993V20.9776H28.5451ZM29.6052 21.7469H28.6409L28.7024 21.3775H29.5361C29.5576 21.4943 29.5785 21.6169 29.6023 21.7469H29.6052ZM28.5724 22.1479H29.6708C29.6917 22.2705 29.7132 22.3942 29.7358 22.5237H28.5091C28.5277 22.3971 28.5492 22.2757 28.5695 22.1474L28.5724 22.1479ZM29.7422 22.9195C29.7566 22.9215 29.7702 22.927 29.7819 22.9355C29.7936 22.944 29.8029 22.9552 29.809 22.9682C29.8316 23.0719 29.845 23.1779 29.863 23.2902H28.3814C28.3994 23.1756 28.4127 23.0719 28.4354 22.9677C28.4416 22.9547 28.4511 22.9436 28.4628 22.9352C28.4746 22.9268 28.4883 22.9214 28.5027 22.9195C28.9137 22.9165 29.326 22.9163 29.7393 22.919L29.7422 22.9195ZM27.298 21.4158C27.3051 21.4048 27.3145 21.3954 27.3256 21.3884C27.3368 21.3813 27.3493 21.3768 27.3625 21.3752C27.4153 21.3719 27.4682 21.3719 27.521 21.3752C27.4774 21.6341 27.4356 21.8827 27.3932 22.1359H27.0536C27.1337 21.8873 27.2138 21.6507 27.2951 21.4153L27.298 21.4158ZM26.2722 23.2919C26.3087 23.183 26.343 23.0828 26.3767 22.982C26.4202 22.8525 26.4609 22.7219 26.5085 22.5936C26.5177 22.5672 26.552 22.5317 26.5758 22.5317C26.8196 22.5271 27.0641 22.5289 27.3259 22.5289C27.2818 22.7912 27.2394 23.0404 27.1964 23.2919H26.2722ZM27.2086 25.6021C27.2411 25.4062 27.2713 25.2172 27.3033 25.0293L27.6725 22.8422C27.752 22.3736 27.831 21.9045 27.9128 21.4359C27.9169 21.413 27.9477 21.3786 27.9674 21.3786C28.0754 21.3729 28.184 21.3786 28.303 21.3786L27.5889 25.6073L27.2086 25.6021ZM27.9883 25.6021C28.0104 25.4767 28.0307 25.3581 28.0516 25.2349H30.1927C30.2136 25.3581 30.234 25.4761 30.256 25.6021H27.9883ZM30.6555 25.6021C30.418 24.1941 30.1805 22.7889 29.9414 21.3735C30.0575 21.3735 30.1689 21.37 30.2775 21.3735C30.2972 21.3735 30.328 21.4101 30.3321 21.4336C30.4134 21.9022 30.4923 22.3708 30.5719 22.8399L30.9411 25.0264C30.973 25.2149 31.0032 25.4039 31.0357 25.5993L30.6555 25.6021ZM30.9196 22.5363H31.7185L31.9716 23.2902H31.0456C31.0026 23.0427 30.9603 22.7935 30.9167 22.5334L30.9196 22.5363ZM31.1135 23.682C31.5675 23.682 32.003 23.682 32.439 23.682C32.4537 23.6833 32.468 23.6882 32.4805 23.696C32.493 23.7039 32.5035 23.7146 32.5109 23.7272C32.594 23.9627 32.6718 24.2004 32.7536 24.4438H31.2441L31.1135 23.682ZM33.4248 25.6061C32.7972 25.6061 32.1696 25.6061 31.542 25.6061C31.4578 25.6061 31.4305 25.5821 31.4195 25.5002C31.3893 25.2813 31.3475 25.0642 31.3086 24.8362H31.4154C32.0035 24.8362 32.5916 24.8362 33.1798 24.8362C33.2096 24.8319 33.2399 24.8391 33.2644 24.8565C33.2889 24.8738 33.3056 24.8998 33.311 24.929C33.369 25.1215 33.4393 25.3117 33.5031 25.5019C33.5136 25.5317 33.52 25.5626 33.531 25.605L33.4248 25.6061Z" fill="#F1400B"/>
<path d="M25.459 23.5997C25.4715 23.5942 25.4843 23.5894 25.4974 23.5854C25.5081 23.4978 25.5121 23.4095 25.5096 23.3213C25.4825 23.338 25.4591 23.3599 25.4408 23.3857C25.4224 23.4114 25.4095 23.4406 25.4027 23.4714C25.3812 23.5344 25.3603 23.598 25.3389 23.661C25.3778 23.6398 25.4149 23.6186 25.459 23.5997Z" fill="#F1400B"/>
<path d="M26.9327 25.9619H9.90527V25.6308C9.98713 25.4653 10.1462 25.459 10.3117 25.459C10.3117 24.85 10.3175 24.256 10.3117 23.6591C10.3082 23.4088 10.3616 23.2089 10.6391 23.135C10.6391 22.8932 10.6391 22.6618 10.6391 22.4298C10.6336 22.3602 10.6507 22.2907 10.688 22.2314C10.7253 22.172 10.7808 22.126 10.8464 22.0999C10.9416 22.0615 10.9532 22.0071 10.9515 21.9234C10.948 21.7355 10.9515 21.5482 10.9515 21.3603C10.9515 21.2028 11.02 21.0739 11.168 21.0166C11.2632 20.9788 11.2737 20.9233 11.2725 20.8408C11.2696 20.6529 11.2725 20.4656 11.2725 20.2777C11.2699 20.2027 11.29 20.1287 11.3302 20.065C11.3704 20.0013 11.429 19.9509 11.4984 19.9202C11.5223 19.9034 11.5423 19.8818 11.5571 19.8567C11.5718 19.8315 11.5809 19.8036 11.5837 19.7747C11.5936 19.5823 11.5738 19.3869 11.5936 19.1962C11.604 19.0948 11.6516 18.9424 11.7213 18.9098C11.9338 18.8215 11.903 18.6629 11.9018 18.5019C11.9018 18.4022 11.9053 18.3026 11.9018 18.2034C11.892 17.9703 11.9675 17.7922 12.2252 17.724C12.2252 17.4949 12.2252 17.2657 12.2252 17.0429C12.2212 16.9682 12.2391 16.894 12.2767 16.8291C12.3142 16.7642 12.3699 16.7114 12.4371 16.6768C12.4633 16.6583 12.4852 16.6347 12.5016 16.6074C12.518 16.5801 12.5285 16.5497 12.5323 16.5182C12.5445 16.3372 12.5358 16.1544 12.5376 15.9723C12.5331 15.8917 12.5534 15.8117 12.5958 15.7428C12.6382 15.6738 12.7006 15.619 12.775 15.5856C12.798 15.571 12.8174 15.5516 12.8318 15.5287C12.8463 15.5058 12.8554 15.4801 12.8586 15.4533C12.8679 15.2493 12.8482 15.0437 12.8697 14.8415C12.8801 14.7424 12.9353 14.5992 13.0107 14.566C13.1808 14.4921 13.1808 14.3769 13.1727 14.2366C13.1675 14.1541 13.1762 14.071 13.1727 13.9885C13.157 13.7273 13.1959 13.4976 13.4984 13.4243V13.2072C13.4984 12.2076 13.4984 11.2086 13.4984 10.209C13.4984 9.86928 13.6888 9.68082 14.0343 9.66192C14.0552 9.66192 14.0761 9.65562 14.1103 9.65046C14.1103 9.51986 14.1068 9.39383 14.1103 9.26781C14.1156 9.10226 14.216 8.99801 14.364 8.99743C14.5121 8.99686 14.6096 9.09653 14.6154 9.26609C14.6195 9.39212 14.6154 9.51814 14.6154 9.64073C15.1333 9.73639 15.1704 9.7782 15.2593 10.374H15.4334C15.9147 10.374 16.396 10.3688 16.8773 10.374C17.1037 10.378 17.2837 10.374 17.4318 10.1351C17.5479 9.94605 17.7894 9.82632 17.9879 9.694C18.1528 9.58401 18.2782 9.47976 18.2527 9.25063C18.2353 9.09539 18.3583 8.99686 18.5 8.99514C18.6417 8.99342 18.7711 9.08966 18.7537 9.24318C18.7264 9.47976 18.8582 9.58688 19.0277 9.69801C19.1694 9.78687 19.3052 9.88465 19.4341 9.99073C19.5301 10.0654 19.6117 10.1564 19.6751 10.2594C19.7285 10.3568 19.7912 10.374 19.8876 10.374C20.4583 10.3705 21.029 10.374 21.5997 10.374C21.6369 10.3736 21.6741 10.3711 21.7111 10.3665C21.7796 10.1706 21.7982 9.97526 21.9039 9.85496C22.0095 9.73467 22.2063 9.68312 22.3939 9.58803C22.3939 9.51642 22.3939 9.39555 22.3939 9.27468C22.3985 9.10283 22.4891 9.00144 22.6377 8.99801C22.7863 8.99457 22.8949 9.09997 22.8995 9.27698C22.9024 9.40243 22.8995 9.52845 22.8995 9.63557C23.0284 9.6688 23.1428 9.68082 23.2403 9.72722C23.4505 9.82804 23.5144 10.0136 23.5132 10.2353C23.5097 11.2951 23.5132 12.3548 23.5132 13.4254C23.7878 13.4982 23.8523 13.697 23.8395 13.9484C23.8308 14.1237 23.8395 14.3002 23.8395 14.4703C24.1002 14.5894 24.1483 14.6628 24.1489 14.9331C24.1489 15.105 24.1437 15.2768 24.153 15.4487C24.1547 15.4758 24.1624 15.5022 24.1756 15.5259C24.1889 15.5497 24.2073 15.5703 24.2296 15.5862C24.4038 15.6669 24.4729 15.8044 24.474 15.9843C24.4752 16.1642 24.4682 16.3492 24.4787 16.5308C24.482 16.56 24.4916 16.5882 24.5068 16.6135C24.522 16.6387 24.5425 16.6605 24.5669 16.6774C24.6353 16.7097 24.6925 16.7612 24.7313 16.8254C24.7701 16.8896 24.7889 16.9636 24.7852 17.0383C24.7852 17.2319 24.7812 17.425 24.7852 17.618C24.7852 17.6621 24.8137 17.7326 24.8468 17.744C25.0424 17.8242 25.1063 17.9732 25.1057 18.1662C25.1057 18.3427 25.1005 18.5197 25.1092 18.6961C25.1112 18.7234 25.1192 18.7499 25.1325 18.774C25.1458 18.798 25.1642 18.8189 25.1864 18.8353C25.3606 18.9206 25.4244 19.0547 25.4186 19.2363C25.4146 19.4517 25.4186 19.6665 25.4186 19.8778C25.7002 20.017 25.7345 20.0726 25.735 20.3848C25.735 20.5452 25.7292 20.7056 25.7391 20.8648C25.7423 20.8913 25.7513 20.9168 25.7655 20.9395C25.7796 20.9623 25.7985 20.9817 25.821 20.9966C25.8944 21.0313 25.9557 21.0867 25.997 21.1559C26.0384 21.225 26.0579 21.3048 26.0532 21.385C26.0532 21.5729 26.0474 21.7608 26.0567 21.9481C26.0595 21.975 26.0683 22.0009 26.0825 22.0241C26.0966 22.0472 26.1158 22.0671 26.1385 22.0821C26.2104 22.114 26.2706 22.1669 26.3112 22.2335C26.3517 22.3002 26.3707 22.3775 26.3655 22.455C26.3655 22.6481 26.3609 22.8417 26.3684 23.0347C26.3702 23.059 26.3775 23.0826 26.3897 23.1037C26.402 23.1248 26.4189 23.143 26.4393 23.1567C26.6297 23.2427 26.6912 23.391 26.6901 23.5852C26.6872 24.1483 26.6901 24.7114 26.6901 25.2745V25.455C26.7175 25.4601 26.7452 25.4629 26.7731 25.4636C26.9142 25.4521 27.0343 25.4893 27.0843 25.6308C27.1412 25.7843 27.0541 25.884 26.9327 25.9619ZM21.1805 21.4972H15.8317V21.9899H16.5168C16.9586 21.9899 17.401 21.9899 17.8428 21.9899C18.053 21.9899 18.1656 22.0804 18.1662 22.2425C18.1668 22.4046 18.0576 22.4888 17.8416 22.4923C17.7801 22.4923 17.7186 22.4923 17.657 22.4923H16.8634V25.455H17.2976V25.2682C17.2976 24.6444 17.2976 24.02 17.2976 23.3962C17.2976 23.1098 17.4718 22.9213 17.7412 22.9179C18.2505 22.9118 18.7599 22.9118 19.2693 22.9179C19.3717 22.9145 19.4718 22.9487 19.5501 23.0139C19.6285 23.0791 19.6796 23.1706 19.6936 23.2707C19.7156 23.4683 19.7176 23.6674 19.6995 23.8653C19.6884 23.9988 19.5897 24.0813 19.4434 24.0756C19.4122 24.0772 19.3809 24.0724 19.3516 24.0615C19.3223 24.0506 19.2955 24.0339 19.273 24.0125C19.2505 23.991 19.2328 23.9651 19.2208 23.9366C19.2089 23.908 19.203 23.8773 19.2036 23.8464C19.1947 23.7529 19.1935 23.6589 19.2002 23.5652C19.2089 23.4506 19.1682 23.4111 19.0492 23.4134C18.691 23.4203 18.3328 23.4214 17.9746 23.4134C17.8428 23.4134 17.8004 23.4477 17.8033 23.5801C17.8103 24.1529 17.8033 24.7257 17.8068 25.3032C17.8068 25.3513 17.8132 25.3994 17.8167 25.4527H19.1752C19.1845 25.4349 19.1932 25.4252 19.1932 25.4154C19.1932 25.294 19.1932 25.1726 19.1984 25.0511C19.2025 24.8558 19.2919 24.7418 19.4428 24.7366C19.5938 24.7315 19.7053 24.8512 19.7076 25.0511C19.7076 25.1863 19.7076 25.3209 19.7076 25.4521H20.1413V22.4928H19.3976C19.3192 22.4928 19.2408 22.4928 19.1624 22.4928C18.9465 22.4894 18.8385 22.4052 18.8385 22.2425C18.8385 22.0798 18.9517 21.991 19.1624 21.9905H21.1793L21.1805 21.4972ZM10.8377 25.455H15.3005V23.6505H10.8377V25.455ZM21.6989 23.6488V25.455H26.1693V23.6488H21.6989ZM18.2416 20.9668V20.7858C18.2416 20.5704 18.2416 20.3556 18.2416 20.1408C18.2451 19.9437 18.3357 19.8366 18.4942 19.8337C18.6527 19.8309 18.7543 19.9414 18.7589 20.1459C18.7589 20.2456 18.7589 20.3447 18.7589 20.4438C18.7589 20.6157 18.7589 20.7915 18.7589 20.9594H19.5055V19.2586H17.4997V20.9668H18.2416ZM11.1512 23.1321H15.3034V22.5696H11.1512V23.1321ZM25.8494 22.5713H21.7036V23.1356H25.8494V22.5713ZM25.2108 20.9674V20.4089H21.0644V20.9674H25.2108ZM11.7857 20.9674H15.9345V20.4106H11.7886L11.7857 20.9674ZM21.0632 19.8859H24.8996V19.3251H21.0661L21.0632 19.8859ZM12.094 19.8859H15.9368V19.3256H12.094V19.8859ZM25.5336 22.0529V21.4967H21.7018V22.0512L25.5336 22.0529ZM11.4658 22.046H15.2976V21.4932H11.4658V22.046ZM18.2411 17.7188V17.4782C18.2411 17.2743 18.2347 17.0698 18.2457 16.8665C18.2447 16.8331 18.2509 16.7999 18.2637 16.769C18.2765 16.7381 18.2957 16.7102 18.3201 16.687C18.3444 16.6639 18.3735 16.646 18.4052 16.6346C18.437 16.6232 18.4709 16.6185 18.5046 16.6207C18.6614 16.6247 18.7369 16.7198 18.7549 16.8596C18.7612 16.9255 18.7625 16.9917 18.7589 17.0578C18.7589 17.2766 18.7589 17.4949 18.7589 17.7148H19.2611V16.0124H17.7389V17.7171L18.2411 17.7188ZM20.5407 18.7368V18.2481H16.4593V18.7368H20.5407ZM15.9368 18.8015V18.2476H12.4238V18.8015H15.9368ZM21.062 18.8015H24.5762V18.2487H21.062V18.8015ZM20.8188 17.7131H24.2656V17.158H20.8188V17.7131ZM12.7297 17.7131H16.1835V17.1592H12.7321L12.7297 17.7131ZM17.7395 12.891V14.4669H18.2329C18.2329 14.4016 18.2405 14.3477 18.2405 14.295C18.2405 14.1128 18.2405 13.9307 18.2405 13.7485C18.2405 13.5664 18.3514 13.4426 18.5006 13.4443C18.6498 13.4461 18.7508 13.5669 18.7572 13.7537C18.7572 13.8144 18.7572 13.8751 18.7572 13.9358C18.7572 14.1105 18.7572 14.2858 18.7572 14.4674H19.2605V12.8927L17.7395 12.891ZM17.2169 13.9439H13.6906V14.464H17.2169V13.9439ZM19.7784 14.4594H23.3019V13.9439H19.7831L19.7784 14.4594ZM23.9393 16.0737H20.8281V16.6345H23.9451L23.9393 16.0737ZM13.0543 16.6356H16.1731V16.0725H13.0601L13.0543 16.6356ZM22.9919 12.8933H19.786V13.4254H22.9919V12.8933ZM17.2146 13.426V12.8904H14.0058V13.426H17.2146ZM20.2829 15.4876V14.9996H16.7229V15.4876H20.2829ZM19.7836 12.3686H22.9948V11.8851H19.7831L19.7836 12.3686ZM17.2228 11.8851H14.0116V12.368H17.2228V11.8851ZM15.8224 25.455H16.3449V24.7028C16.3449 24.0154 16.3449 23.3338 16.3414 22.6492C16.3414 22.5971 16.2996 22.5049 16.2689 22.5014C16.1205 22.4914 15.9716 22.4891 15.823 22.4946L15.8224 25.455ZM21.1799 22.4928C21.0673 22.4928 20.9616 22.5009 20.8583 22.4928C20.7108 22.4785 20.6562 22.5209 20.658 22.6807C20.6661 23.5532 20.662 24.425 20.662 25.2974V25.455H21.1799V22.4928ZM16.1835 15.5535V14.999H13.3747V15.5535H16.1835ZM20.8252 15.5535H23.6351V15.0013H20.8252V15.5535ZM19.2745 11.3598C19.2745 11.1078 19.2872 10.8706 19.2675 10.6369C19.2495 10.5414 19.1974 10.4554 19.1206 10.3946C18.9546 10.2565 18.7682 10.1431 18.5981 10.0114C18.525 9.95407 18.4762 9.96839 18.4094 10.0177C18.2405 10.1442 18.0611 10.2571 17.898 10.39C17.83 10.4473 17.7551 10.5349 17.7487 10.6134C17.7296 10.8586 17.7418 11.1055 17.7418 11.3581H18.2295C18.2359 11.3447 18.2409 11.3307 18.2445 11.3163C18.2445 11.2172 18.2445 11.1181 18.2492 11.019C18.2544 10.8282 18.3502 10.7142 18.5041 10.7125C18.6579 10.7108 18.7601 10.8236 18.7659 11.0127C18.7694 11.1272 18.7659 11.2418 18.7659 11.3621L19.2745 11.3598ZM17.2233 10.8952H15.2535V11.3581H17.2233V10.8952ZM19.7877 11.3569H21.757V10.8952H19.7831L19.7877 11.3569ZM16.4634 20.9657H16.9743C16.9743 20.4163 16.9743 19.8773 16.9702 19.3394C16.9645 19.3189 16.9535 19.3003 16.9383 19.2853C16.9232 19.2702 16.9044 19.2593 16.8837 19.2535C16.7467 19.2443 16.6079 19.2494 16.4634 19.2494V20.9657ZM20.5477 19.2472C20.4194 19.2472 20.2974 19.2535 20.1767 19.2472C20.0559 19.2409 20.0327 19.2844 20.035 19.3904C20.0402 19.6934 20.035 19.9964 20.035 20.2995V20.9628H20.5459L20.5477 19.2472ZM20.2829 17.7217V16.0095H19.7883V17.7217H20.2829ZM17.2158 17.7217V16.0112H16.724V17.7217H17.2158ZM22.2952 11.3535H22.9977V10.1815H22.2952V11.3535ZM14.0105 10.1786V11.3512H14.7072V10.1775L14.0105 10.1786ZM17.7406 12.3691H19.2605V11.8874H17.7412L17.7406 12.3691Z" fill="#F1400B"/>
</g>
<defs>
<clipPath id="clip0_872_162">
<rect width="31" height="17" fill="white" transform="translate(3 9)"/>
</clipPath>
</defs>
</svg>
