<svg width="37" height="37" viewBox="0 0 37 37" fill="none" xmlns="http://www.w3.org/2000/svg">
<circle cx="18.5" cy="18.5" r="18.5" fill="white"/>
<g clip-path="url(#clip0_879_197)">
<path d="M11.7443 27C11.2589 26.8305 11.0648 26.4873 11.1022 26.0038C11.1099 25.8991 11.0983 25.7925 11.1094 25.6878C11.1254 25.5329 11.222 25.4367 11.3827 25.4362C11.5433 25.4357 11.6443 25.5352 11.6569 25.6878C11.671 25.8568 11.6593 26.0277 11.6647 26.1972C11.67 26.3667 11.7656 26.4704 11.9321 26.4704C12.4452 26.477 12.9587 26.4704 13.494 26.4704V26.2704C13.494 25.339 13.494 24.4077 13.494 23.4766C13.4899 23.4182 13.4922 23.3595 13.5008 23.3015C13.5324 23.1607 13.6275 23.0668 13.7789 23.0729C13.8126 23.072 13.8462 23.0776 13.8776 23.0892C13.9091 23.1009 13.9379 23.1185 13.9623 23.141C13.9868 23.1634 14.0064 23.1903 14.0201 23.2201C14.0337 23.2499 14.0412 23.2821 14.042 23.3146C14.0479 23.3786 14.0502 23.4429 14.0488 23.5071C14.0488 24.4213 14.0488 25.3351 14.0488 26.2484V26.4634H20.576V23.8029C20.4148 23.8029 20.3168 23.8283 20.2736 24.0128C20.1624 24.4949 19.6285 24.7803 19.1306 24.6447C19.015 24.6127 18.9417 24.617 18.8461 24.7038C18.6757 24.8614 18.449 24.9494 18.2132 24.9494C17.9774 24.9494 17.7507 24.8614 17.5803 24.7038C17.5481 24.6678 17.5051 24.6423 17.4572 24.6311C17.4093 24.6199 17.359 24.6235 17.3134 24.6414C17.1916 24.6773 17.0634 24.6884 16.937 24.6741C16.8106 24.6598 16.6886 24.6203 16.5787 24.5581C16.4688 24.4959 16.3734 24.4124 16.2985 24.3128C16.2237 24.2132 16.1709 24.0997 16.1436 23.9794C16.1203 23.8827 16.083 23.8358 15.9776 23.8099C15.4476 23.6799 15.1782 23.2654 15.2593 22.7377C15.2599 22.7064 15.2535 22.6754 15.2405 22.6468C15.2275 22.6182 15.2083 22.5926 15.1841 22.5719C14.8351 22.3025 14.7191 21.971 14.8293 21.5429C14.8399 21.5011 14.8346 21.4307 14.8069 21.4086C14.5157 21.1739 14.4094 20.8739 14.4448 20.5194C13.311 20.3992 12.3748 20.711 11.8593 21.7245C11.7225 21.9998 11.655 22.3024 11.6623 22.6076C11.6666 23.1874 11.6623 23.7672 11.6623 24.3475C11.6638 24.4115 11.6574 24.4755 11.6433 24.5381C11.6282 24.595 11.5936 24.6453 11.5451 24.6809C11.4967 24.7164 11.4373 24.7351 11.3765 24.7339C11.3158 24.7327 11.2572 24.7117 11.2103 24.6743C11.1634 24.6369 11.1309 24.5852 11.1182 24.5278C11.1092 24.4938 11.1043 24.459 11.1036 24.424C11.1104 23.7198 11.0915 23.0156 11.1318 22.3166C11.1968 21.194 12.2127 20.1546 13.3712 20.0161C13.777 19.9668 14.1925 19.9908 14.6031 19.9692C14.7146 19.9633 14.8239 19.936 14.9244 19.8889C15.235 19.741 15.5393 19.7335 15.8437 19.896C16.0999 20.0321 16.5382 20.0002 16.7494 19.8255C16.8561 19.7377 16.795 19.4227 16.6634 19.3739C15.799 19.0556 15.2239 18.4706 14.9457 17.6181C14.9084 17.5035 14.8627 17.4599 14.7356 17.4669C14.2716 17.4923 13.8736 17.358 13.5416 17.0247C13.079 16.5604 13.0509 15.4031 13.6173 14.9355C13.6635 14.8998 13.6995 14.8532 13.7218 14.8002C13.7442 14.7472 13.7521 14.6895 13.745 14.6327C13.7187 14.0309 13.7784 13.4417 14.0362 12.8825C14.3383 12.205 14.8572 11.6391 15.5165 11.268C15.5657 11.2424 15.6089 11.2074 15.6435 11.1651C15.6781 11.1228 15.7035 11.0741 15.718 11.022C16.0048 10.1483 16.5261 9.46618 17.4439 9.13614C18.418 8.78545 19.5009 9.13286 20.178 9.99622C20.4195 10.3117 20.6036 10.6648 20.7221 11.0403C20.7523 11.125 20.8102 11.1978 20.8871 11.2478C22.0427 11.9389 22.647 12.9351 22.6829 14.2524C22.6859 14.2993 22.6859 14.3464 22.6829 14.3933C22.6577 14.6506 22.7242 14.8482 22.9159 15.0628C23.6046 15.8341 23.2037 17.1608 22.2243 17.4148C22.0058 17.4716 21.7709 17.4688 21.5283 17.4946C21.2516 18.4429 20.6216 19.0941 19.6353 19.4274C19.6353 19.4993 19.6353 19.5683 19.6353 19.6387C19.6353 19.8138 19.795 19.9819 19.9751 19.9715C20.1746 19.9598 20.3881 20.0387 20.5726 19.903C20.6131 19.8781 20.6504 19.8487 20.6837 19.8152C20.7954 19.6795 20.9429 19.6331 21.1157 19.6331C21.9335 19.6331 22.7509 19.6331 23.5682 19.6331C23.9046 19.6331 24.0968 19.8086 24.0861 20.133C24.0798 20.3307 24.1541 20.4429 24.3094 20.5645C24.9889 21.0926 25.318 21.7936 25.3233 22.6302C25.3306 23.8015 25.3233 24.9733 25.3257 26.1446C25.3257 26.5817 25.0923 26.8512 24.6841 27H11.7443ZM14.8191 14.559C14.8259 14.5121 14.8307 14.4881 14.8322 14.4651C14.8754 13.8525 15.2777 13.3323 15.8854 13.1769C16.1485 13.1093 16.4353 13.1215 16.7105 13.1135C16.747 13.1103 16.7837 13.1145 16.8184 13.1258C16.8531 13.1371 16.8849 13.1553 16.9119 13.1792C16.9389 13.2031 16.9605 13.2322 16.9752 13.2646C16.9899 13.2971 16.9975 13.3321 16.9974 13.3675C17.0008 13.5163 16.878 13.6323 16.7023 13.6393C16.5877 13.644 16.4722 13.6393 16.3572 13.6393C15.7772 13.6421 15.3763 14.0276 15.3748 14.5881C15.3748 15.3496 15.3719 16.1111 15.3748 16.8726C15.3792 17.8777 16.1412 18.7974 17.1663 18.9425C17.7245 19.0218 18.3011 18.9997 18.8685 18.9894C20.1003 18.9664 21.0448 18.0204 21.0477 16.8298C21.0497 16.0862 21.0497 15.3424 21.0477 14.5984C21.0477 14.0257 20.6488 13.6403 20.0576 13.6393C19.3854 13.6393 18.7131 13.6393 18.0414 13.6393C17.8472 13.6393 17.7206 13.5318 17.7162 13.3778C17.7118 13.2238 17.8346 13.1107 18.0293 13.1102C18.7379 13.1102 19.4465 13.1004 20.1547 13.1144C20.8536 13.1285 21.4055 13.5839 21.5622 14.2454C21.586 14.3454 21.5952 14.4487 21.6108 14.5599H22.1447C22.132 14.3449 22.1277 14.1351 22.1058 13.9266C21.9539 12.4741 20.6575 11.3309 19.1519 11.3215C18.5403 11.3173 17.9283 11.3187 17.3167 11.3215C16.6614 11.3226 16.0241 11.529 15.5003 11.9099C14.9765 12.2907 14.5945 12.8256 14.4114 13.4342C14.3017 13.7986 14.2626 14.1794 14.2958 14.5576L14.8191 14.559ZM21.1569 26.462H22.4762V26.2413C22.4762 25.0639 22.4762 23.8866 22.4762 22.7095C22.4762 22.5001 22.5941 22.3696 22.7635 22.3752C22.9329 22.3809 23.0295 22.5057 23.0358 22.7081C23.0358 22.7489 23.0358 22.7902 23.0358 22.8311V26.4592H23.5134V20.1847H23.0358V20.3861C23.0358 20.7147 23.0397 21.0433 23.0358 21.372C23.0324 21.5598 22.9159 21.6795 22.7577 21.6799C22.5994 21.6804 22.482 21.5593 22.4781 21.3734C22.4728 21.1039 22.4781 20.8344 22.4781 20.565V20.1852H21.1569V26.462ZM16.347 20.5081C16.3169 20.6823 16.2863 20.841 16.264 21.0011C16.2621 21.0196 16.2643 21.0382 16.2705 21.0558C16.2767 21.0734 16.2868 21.0895 16.2999 21.103C16.6363 21.372 16.7173 21.7161 16.6212 22.1208C16.7478 22.1904 16.8574 22.2855 16.9426 22.3998C17.0277 22.514 17.0865 22.6446 17.1148 22.7827C17.1241 22.8231 17.1891 22.8579 17.2352 22.8827C17.3959 22.9701 17.558 23.0555 17.723 23.1339C17.7804 23.1604 17.8429 23.1746 17.9065 23.1757C18.1006 23.1794 18.302 23.1546 18.4942 23.1808C18.5355 23.1885 18.578 23.1871 18.6185 23.1767C18.6591 23.1663 18.6968 23.1472 18.7287 23.1208C18.8654 23.0281 19.0132 22.9518 19.1689 22.8935C19.2553 22.8611 19.3145 22.8377 19.3315 22.7405C19.3771 22.4987 19.5188 22.318 19.7198 22.1701C19.7403 22.1506 19.756 22.127 19.7659 22.1009C19.7758 22.0749 19.7796 22.047 19.7771 22.0194C19.7285 21.663 19.8169 21.3593 20.1047 21.1189C20.1218 21.1054 20.1359 21.0886 20.1459 21.0695C20.1559 21.0504 20.1617 21.0295 20.1629 21.0081C20.1416 20.8434 20.1081 20.6795 20.0775 20.511H19.8275C19.5557 21.3837 18.9728 21.8856 18.2258 21.8959C17.4789 21.9062 16.9226 21.4283 16.5921 20.5081H16.347ZM16.362 10.915C16.9736 10.7446 17.591 10.7938 18.2064 10.7943C18.8219 10.7948 19.4475 10.7431 20.0654 10.9117C19.8673 10.1695 18.9898 9.52674 18.205 9.53191C17.4201 9.53707 16.5547 10.1798 16.362 10.9136V10.915ZM24.1031 26.4737H24.3366C24.6938 26.4737 24.7617 26.4089 24.7617 26.0676C24.7617 24.9381 24.7617 23.8085 24.7617 22.679C24.7643 22.5036 24.7491 22.3284 24.7161 22.156C24.631 21.7492 24.4167 21.3783 24.1031 21.095V26.4737ZM17.3473 19.5335C17.3444 19.5687 17.34 19.5969 17.3405 19.6274C17.3449 19.8734 17.3614 20.1218 17.1619 20.3199C17.1472 20.3444 17.143 20.3736 17.1503 20.4011C17.2124 20.7729 17.5546 21.3048 18.1259 21.3518C18.7825 21.4062 19.1937 20.8471 19.2728 20.4128C19.2805 20.3701 19.2446 20.319 19.2291 20.272C19.1753 20.1337 19.1293 19.9926 19.0912 19.8495C19.0699 19.75 19.0874 19.6424 19.0874 19.5363L17.3473 19.5335ZM14.8176 16.9045V15.1116C14.4167 15.0388 14.0774 15.1618 13.8877 15.4435C13.6911 15.7355 13.6959 16.3153 13.8978 16.597C14.0954 16.8702 14.4308 16.9843 14.8176 16.9031V16.9045ZM21.6069 16.9097C22.0437 16.9782 22.3645 16.8575 22.5524 16.5632C22.7402 16.2688 22.7198 15.6839 22.5145 15.4102C22.3204 15.1505 21.9607 15.0346 21.6069 15.1186V16.9097ZM17.8249 24.0456C17.8265 24.1452 17.8689 24.2402 17.9428 24.3095C18.0167 24.3789 18.1161 24.4171 18.219 24.4156C18.322 24.4141 18.4202 24.3731 18.4919 24.3016C18.5636 24.2301 18.6031 24.134 18.6015 24.0343C18.6 23.9347 18.5576 23.8398 18.4837 23.7704C18.4097 23.701 18.3104 23.6629 18.2074 23.6644C18.1044 23.6659 18.0063 23.7069 17.9345 23.7784C17.8628 23.8499 17.8234 23.946 17.8249 24.0456ZM16.1645 22.5222C16.0674 22.5818 15.9514 22.6255 15.8757 22.7043C15.7369 22.8499 15.7757 23.0912 15.9373 23.2175C16.099 23.3438 16.2024 23.3217 16.3698 23.1499C16.4162 23.1132 16.4603 23.0738 16.5018 23.032C16.5382 22.9905 16.5595 22.9385 16.5625 22.8841C16.5474 22.6964 16.3766 22.555 16.1645 22.5222ZM16.1087 21.8227C16.1076 21.7316 16.0726 21.6439 16.0103 21.5757C15.9479 21.5074 15.8622 21.4631 15.7689 21.4508C15.6784 21.4423 15.5875 21.4641 15.5115 21.5125C15.4356 21.561 15.3791 21.6332 15.3515 21.717C15.3303 21.7843 15.329 21.8559 15.3478 21.9238C15.3666 21.9917 15.4047 22.0531 15.4578 22.1011C15.5719 22.2166 15.6791 22.1696 15.7922 22.1011C15.8329 22.0761 15.8788 22.0601 15.9267 22.0541C16.0815 22.0391 16.1092 21.9414 16.1087 21.8227ZM15.3573 20.2767C15.2549 20.3471 15.1287 20.4002 15.0564 20.4927C14.953 20.6236 14.9754 20.7786 15.0763 20.9152C15.1773 21.0518 15.2938 21.0269 15.4229 20.9621C15.4656 20.9395 15.5134 20.9273 15.5622 20.9264C15.7602 20.9297 15.767 20.7856 15.7665 20.6612C15.7675 20.4668 15.5898 20.3161 15.3573 20.2767ZM20.5847 22.9527C20.5847 22.9025 20.5847 22.8729 20.5847 22.8438C20.593 22.6762 20.4837 22.6025 20.3381 22.5663C20.2525 22.5439 20.1615 22.5512 20.0808 22.5868C20.0002 22.6225 19.9349 22.6843 19.8965 22.7616C19.8304 22.8949 19.8397 23.0062 19.9877 23.0902C20.0345 23.118 20.0731 23.157 20.0998 23.2034C20.1692 23.3231 20.2658 23.3193 20.3794 23.2785C20.5507 23.2165 20.6143 23.1015 20.5862 22.9536L20.5847 22.9527ZM17.0561 24.1498C17.4046 24.1334 17.2308 23.8212 17.3473 23.6696C17.3726 23.6367 17.3221 23.5442 17.2964 23.4818C17.2871 23.4597 17.2507 23.4442 17.2231 23.4348C17.0648 23.3743 16.9154 23.3879 16.7862 23.5038C16.7274 23.5554 16.6874 23.624 16.6721 23.6994C16.6568 23.7747 16.667 23.8529 16.7013 23.9221C16.7649 24.0714 16.8959 24.1376 17.0561 24.1498ZM19.3703 23.3987C19.1335 23.3987 19.034 23.533 19.1053 23.748C19.1326 23.8128 19.1479 23.8818 19.1505 23.9517C19.1403 24.1212 19.2529 24.1456 19.38 24.1456C19.4314 24.1448 19.4821 24.134 19.5291 24.1139C19.5761 24.0938 19.6185 24.0648 19.6538 24.0286C19.689 23.9925 19.7164 23.9498 19.7343 23.9032C19.7522 23.8566 19.7603 23.807 19.7581 23.7574C19.7555 23.6601 19.713 23.5679 19.6401 23.5009C19.5672 23.434 19.4699 23.3977 19.3694 23.4001L19.3703 23.3987ZM20.5731 22.0574V21.4893C20.3736 21.5738 20.2954 21.7067 20.3197 21.8879C20.3396 22.033 20.4435 22.0536 20.5731 22.0574Z" fill="#FF440D"/>
<path d="M18.2034 18.2494C17.8274 18.2487 17.4655 18.1109 17.1899 17.8635C17.0385 17.7316 17.0176 17.5889 17.1244 17.4636C17.2312 17.3382 17.3977 17.3391 17.5559 17.4636C17.9845 17.8039 18.4412 17.8035 18.8717 17.4636C19.0251 17.342 19.1814 17.3377 19.2911 17.4513C19.4105 17.5758 19.393 17.7283 19.2362 17.865C18.9549 18.1154 18.5856 18.2529 18.2034 18.2494Z" fill="#FF440D"/>
<path d="M16.7287 15.8661C16.417 15.8719 16.1152 15.7596 15.888 15.553C15.7565 15.4375 15.7352 15.277 15.8298 15.1638C15.9317 15.0413 16.0929 15.0361 16.2467 15.1507C16.5928 15.407 16.8597 15.4051 17.2136 15.1436C17.3592 15.0366 17.5145 15.0427 17.6169 15.1591C17.7193 15.2756 17.6985 15.4324 17.5684 15.5493C17.342 15.7569 17.0406 15.8706 16.7287 15.8661Z" fill="#FF440D"/>
<path d="M19.5992 15.8669C19.3716 15.8669 19.092 15.7589 18.8566 15.5467C18.726 15.4293 18.711 15.2692 18.8124 15.157C18.9139 15.0448 19.0677 15.0368 19.2158 15.1462C19.5701 15.4068 19.8341 15.4072 20.1826 15.1462C20.3316 15.0354 20.4806 15.0373 20.5869 15.1514C20.6932 15.2655 20.6733 15.4303 20.5384 15.5547C20.3205 15.7551 20.0103 15.8697 19.5992 15.8669Z" fill="#FF440D"/>
<path d="M18.1448 16.5343C18.1972 16.554 18.2501 16.5723 18.3025 16.593C18.4442 16.6493 18.5107 16.7507 18.4777 16.8972C18.4447 17.0437 18.3321 17.1089 18.1865 17.1066C18.0341 17.0991 17.89 17.0375 17.7817 16.9335C17.6734 16.8295 17.6086 16.6906 17.5997 16.5432C17.5906 16.393 17.6411 16.245 17.7409 16.1296C17.8408 16.0141 17.9825 15.9399 18.137 15.9221C18.3253 15.9024 18.4476 15.9752 18.4821 16.1273C18.5141 16.2681 18.4335 16.3831 18.2656 16.4428C18.2253 16.4568 18.186 16.4747 18.1462 16.4897L18.1448 16.5343Z" fill="#FF440D"/>
<path d="M18.2209 14.7295C18.1479 14.7293 18.0776 14.7022 18.0245 14.6536C17.9715 14.605 17.9396 14.5386 17.9356 14.468C17.9351 14.3983 17.9628 14.3313 18.0127 14.2811C18.0626 14.231 18.1308 14.2016 18.2027 14.1994C18.2747 14.1971 18.3447 14.2221 18.3979 14.269C18.451 14.3159 18.4832 14.3811 18.4874 14.4506C18.4884 14.5213 18.4614 14.5896 18.4118 14.6415C18.3622 14.6934 18.2939 14.7249 18.2209 14.7295Z" fill="#FF440D"/>
<path d="M32.9971 23.7209C32.9932 23.105 32.75 22.5895 32.2516 22.2008C32.1375 22.1116 32.0827 22.029 32.0875 21.8834C32.0953 21.6449 31.954 21.5168 31.707 21.5158C31.1056 21.5135 30.5042 21.5158 29.9029 21.5158C29.8427 21.5119 29.7825 21.5219 29.7272 21.5451C29.6718 21.5683 29.6231 21.604 29.585 21.6492C29.5607 21.674 29.5333 21.6957 29.5034 21.714C29.368 21.814 29.2122 21.7557 29.0642 21.7642C28.9312 21.7722 28.8142 21.6487 28.8137 21.5196V21.3642C29.5418 21.1191 30.0034 20.6403 30.2067 19.9431C30.3858 19.9239 30.5581 19.9262 30.7188 19.8844C31.4395 19.6966 31.7342 18.7215 31.2274 18.1544C31.0867 17.9967 31.0377 17.8511 31.0561 17.6619C31.0583 17.6276 31.0583 17.5931 31.0561 17.5587C31.0299 16.5911 30.5853 15.8587 29.7354 15.3521C29.6788 15.3155 29.6362 15.2619 29.6141 15.1996C29.5267 14.9236 29.3915 14.6641 29.2142 14.432C28.7162 13.7968 27.9197 13.54 27.2033 13.7991C26.5281 14.0419 26.1452 14.5437 25.9346 15.186C25.9238 15.2243 25.9051 15.2602 25.8795 15.2913C25.854 15.3225 25.8222 15.3483 25.786 15.3672C25.3011 15.64 24.9195 16.0562 24.6974 16.5545C24.5086 16.9657 24.4644 17.3995 24.4838 17.8418C24.4891 17.8834 24.4833 17.9257 24.4669 17.9646C24.4505 18.0035 24.4241 18.0376 24.3901 18.0638C23.9732 18.4079 23.9941 19.2591 24.3343 19.6009C24.4457 19.7151 24.5824 19.8035 24.7341 19.8592C24.8858 19.915 25.0487 19.9368 25.2104 19.9229C25.3041 19.9178 25.3376 19.9497 25.3652 20.0342C25.5696 20.6609 25.9928 21.0914 26.6272 21.3257C26.7242 21.3614 26.7689 21.5933 26.6907 21.6576C26.5349 21.7858 26.2127 21.8097 26.0243 21.7093C25.8006 21.59 25.5768 21.5956 25.3482 21.7041C25.2743 21.7389 25.1939 21.759 25.1119 21.7632C25.0196 21.7679 24.9274 21.7694 24.8347 21.7703C24.8994 21.8905 24.9277 22.0259 24.9163 22.1609C24.9425 22.1632 24.9687 22.1646 24.9954 22.1675C24.9692 22.4285 25.0483 22.6496 25.2613 22.8214C25.2715 22.8357 25.2783 22.852 25.2812 22.8691C25.2842 22.8863 25.2832 22.9038 25.2783 22.9205C25.1968 23.235 25.2822 23.4792 25.539 23.6773C25.5568 23.6925 25.571 23.7113 25.5806 23.7324C25.5901 23.7535 25.5948 23.7763 25.5943 23.7993C25.5346 24.1871 25.7326 24.4923 26.1229 24.5876C26.1546 24.5925 26.1837 24.6074 26.2057 24.63C26.2278 24.6526 26.2415 24.6816 26.2447 24.7125C26.2649 24.8008 26.3038 24.8842 26.3589 24.9573C26.414 25.0304 26.4841 25.0917 26.5649 25.1374C26.6456 25.1831 26.7352 25.2122 26.8281 25.2229C26.921 25.2335 27.0152 25.2255 27.1048 25.1993C27.1382 25.1867 27.1748 25.1844 27.2096 25.1928C27.2444 25.2012 27.2756 25.2199 27.2989 25.2463C27.4244 25.3621 27.5912 25.4267 27.7646 25.4267C27.9381 25.4267 28.1048 25.3621 28.2303 25.2463C28.2561 25.2188 28.2902 25.1998 28.3277 25.192C28.3652 25.1841 28.4043 25.1879 28.4395 25.2026C28.804 25.3035 29.1962 25.0927 29.2797 24.7383C29.3117 24.6026 29.384 24.5824 29.502 24.5838V26.5415H24.8143C24.7961 26.5668 24.7745 26.5897 24.7503 26.6096C24.7485 26.6719 24.7395 26.7338 24.7236 26.7941C24.7202 26.8411 24.7187 26.888 24.7177 26.9349H32.5272C32.8277 26.8256 32.9995 26.6274 32.999 26.3059C32.998 25.4439 33.0029 24.5824 32.9971 23.7209ZM29.5049 22.8801V23.298C29.4078 23.298 29.3331 23.2815 29.3185 23.1731C29.301 23.0397 29.3583 22.9421 29.5049 22.8801ZM30.9328 18.4103C31.0838 18.6112 31.0978 19.0431 30.9605 19.2582C30.8231 19.4732 30.5853 19.5633 30.2655 19.5126V18.1957C30.3861 18.1634 30.5141 18.1665 30.6329 18.2047C30.7518 18.2429 30.8562 18.3145 30.9328 18.4103ZM27.7629 14.0883C28.3405 14.0846 28.9855 14.5578 29.1312 15.1029C28.6773 14.9789 28.2196 15.0151 27.7634 15.0151C27.3072 15.0151 26.8582 14.9785 26.4083 15.1038C26.5495 14.5648 27.1887 14.0921 27.7629 14.0883ZM25.2725 19.5088C24.9881 19.5685 24.7386 19.4849 24.5959 19.284C24.4532 19.083 24.444 18.6502 24.5886 18.4356C24.7279 18.2286 24.9769 18.138 25.2725 18.1915V19.5088ZM25.6841 19.4882C25.6817 18.9281 25.6841 18.3685 25.6841 17.8084C25.6841 17.3962 25.9797 17.1127 26.4063 17.1103C26.4913 17.1103 26.5757 17.1131 26.6602 17.1103C26.7898 17.1052 26.8796 17.0202 26.8771 16.9108C26.8772 16.8847 26.8717 16.8588 26.8609 16.8349C26.8501 16.811 26.8343 16.7895 26.8144 16.7718C26.7945 16.7542 26.7711 16.7407 26.7455 16.7323C26.72 16.7239 26.6929 16.7207 26.666 16.723C26.4626 16.7291 26.2515 16.7202 26.0578 16.77C25.6113 16.884 25.3152 17.2667 25.2837 17.7173C25.2837 17.7338 25.2788 17.7507 25.274 17.7859H24.8915C24.8669 17.5079 24.8957 17.2279 24.9764 16.9601C25.1107 16.5124 25.3914 16.1189 25.7764 15.8385C26.1615 15.5582 26.6301 15.4061 27.112 15.4052C27.562 15.4052 28.0114 15.4029 28.4614 15.4052C29.569 15.4122 30.5222 16.2531 30.6338 17.3211C30.6499 17.4746 30.6533 17.6291 30.6625 17.7868H30.2708C30.2577 17.7051 30.2514 17.6291 30.2339 17.5558C30.1184 17.0681 29.7126 16.7343 29.1986 16.7239C28.6846 16.7136 28.1565 16.7192 27.6357 16.7207C27.4901 16.7207 27.4023 16.8028 27.4057 16.9178C27.4091 17.0329 27.5028 17.1094 27.6445 17.1098C28.1386 17.1098 28.6332 17.1098 29.1273 17.1098C29.5641 17.1098 29.8553 17.3939 29.8553 17.8141C29.8553 18.3608 29.8553 18.9085 29.8553 19.4572C29.8604 19.8731 29.6945 20.2739 29.3942 20.5715C29.0938 20.8692 28.6836 21.0393 28.2536 21.0445C27.8362 21.0525 27.4125 21.0689 27.0019 21.0107C26.2476 20.9032 25.687 20.2262 25.6841 19.4882ZM27.1276 21.5111C27.1281 21.4885 27.1299 21.466 27.1329 21.4435H28.4138C28.407 21.5201 28.4079 21.5972 28.4167 21.6736C28.4446 21.7792 28.4785 21.8833 28.5181 21.9853C28.5293 22.0201 28.556 22.0567 28.5502 22.0881C28.4919 22.4078 28.19 22.8191 27.7066 22.7792C27.2863 22.7444 27.0349 22.3538 26.9892 22.0801C26.9866 22.0701 26.986 22.0597 26.9875 22.0495C26.989 22.0393 26.9925 22.0294 26.998 22.0205C27.1431 21.8745 27.131 21.6919 27.1276 21.5111ZM25.4637 22.4609C25.3895 22.359 25.373 22.2454 25.4492 22.1487C25.5026 22.0806 25.5948 22.0421 25.6705 21.99C25.8404 22.0191 25.971 22.1308 25.9714 22.2717C25.9714 22.3632 25.9666 22.4689 25.821 22.4665C25.7852 22.4672 25.75 22.4763 25.7186 22.4928C25.6234 22.543 25.5366 22.5614 25.4637 22.4609ZM25.7443 23.3303C25.7056 23.295 25.6777 23.25 25.6639 23.2002C25.6501 23.1505 25.6509 23.098 25.6661 23.0487C25.6862 22.9869 25.7277 22.9337 25.7836 22.8981C25.8394 22.8624 25.9063 22.8465 25.9729 22.8529C26.0412 22.8626 26.1037 22.8954 26.1493 22.9455C26.1949 22.9957 26.2207 23.0598 26.2219 23.1266C26.2219 23.2158 26.2015 23.2876 26.0889 23.297C26.0542 23.3019 26.0211 23.3141 25.9918 23.3327C25.9069 23.3806 25.8283 23.4148 25.7443 23.3303ZM26.5112 24.0162C26.4805 24.0468 26.4481 24.0757 26.4141 24.1026C26.2908 24.2294 26.2112 24.2435 26.0962 24.1529C25.9811 24.0623 25.9506 23.8824 26.051 23.7773C26.1069 23.7191 26.1918 23.6871 26.2631 23.6435C26.4209 23.6674 26.5451 23.7712 26.5544 23.9097C26.5518 23.9487 26.5367 23.9859 26.5112 24.0162ZM27.1315 24.4857C27.0465 24.5956 27.1742 24.827 26.9179 24.8388C26.8623 24.8388 26.808 24.8229 26.7618 24.793C26.7156 24.7632 26.6795 24.7208 26.6582 24.6712C26.6329 24.6204 26.6253 24.563 26.6365 24.5076C26.6477 24.4523 26.6771 24.4019 26.7204 24.3641C26.7618 24.3246 26.8148 24.2985 26.8721 24.2894C26.9295 24.2802 26.9884 24.2884 27.0407 24.3129C27.0606 24.3205 27.0892 24.3317 27.0941 24.3482C27.113 24.3928 27.1518 24.4613 27.1315 24.4852V24.4857ZM27.7828 25.0275C27.7449 25.0292 27.7071 25.0236 27.6715 25.011C27.6359 24.9984 27.6033 24.979 27.5756 24.9539C27.5479 24.9289 27.5257 24.8987 27.5103 24.8652C27.4948 24.8318 27.4865 24.7956 27.4858 24.7589C27.4846 24.6856 27.5136 24.6148 27.5664 24.5622C27.6192 24.5095 27.6915 24.4793 27.7673 24.4782C27.8431 24.4771 27.9163 24.5051 27.9707 24.5562C28.0251 24.6073 28.0564 24.6772 28.0575 24.7505C28.0585 24.8223 28.0302 24.8916 27.9788 24.9434C27.9274 24.9952 27.857 25.0254 27.7828 25.0275ZM28.6288 24.8364C28.5351 24.8364 28.4521 24.8181 28.4599 24.6956C28.4581 24.6442 28.4469 24.5935 28.4269 24.5458C28.3745 24.3876 28.4478 24.2895 28.621 24.2885C28.695 24.2871 28.7665 24.3141 28.82 24.3635C28.8734 24.413 28.9045 24.4809 28.9064 24.5524C28.9079 24.5889 28.9017 24.6253 28.8883 24.6595C28.875 24.6937 28.8547 24.725 28.8286 24.7515C28.8025 24.7779 28.7713 24.7991 28.7366 24.8137C28.702 24.8283 28.6647 24.836 28.6269 24.8364H28.6288ZM28.8812 23.381C28.7322 23.4789 28.629 23.6295 28.5939 23.8003C28.5803 23.8716 28.538 23.889 28.4745 23.913C28.3598 23.9558 28.2509 24.0119 28.1502 24.0801C28.1266 24.0994 28.0987 24.1133 28.0687 24.1207C28.0387 24.1281 28.0073 24.1288 27.977 24.1228C27.8357 24.1036 27.6891 24.1228 27.545 24.1191C27.4982 24.1182 27.4522 24.1076 27.4101 24.0881C27.2887 24.0303 27.1674 23.9679 27.0514 23.9036C27.0174 23.8853 26.9693 23.8599 26.9626 23.8303C26.9419 23.7287 26.8988 23.6326 26.8362 23.5486C26.7736 23.4646 26.6931 23.3946 26.6 23.3435C26.6704 23.0458 26.6107 22.7923 26.3636 22.5923C26.3538 22.5825 26.3464 22.5708 26.3418 22.5579C26.3371 22.545 26.3355 22.5313 26.3369 22.5177C26.3534 22.3999 26.3757 22.283 26.3981 22.1548H26.5781C26.8208 22.8327 27.2358 23.1834 27.7804 23.1754C28.325 23.1674 28.7579 22.7998 28.9579 22.1571H29.1418C29.1642 22.2811 29.1904 22.4013 29.2049 22.5229C29.2039 22.5385 29.1996 22.5538 29.1923 22.5677C29.1849 22.5817 29.1747 22.5941 29.1622 22.6041C28.9501 22.7811 28.8841 23.0041 28.9195 23.2665C28.9221 23.2874 28.9198 23.3085 28.9129 23.3284C28.9059 23.3483 28.8944 23.3665 28.8793 23.3815L28.8812 23.381ZM29.3666 24.196C29.2831 24.2261 29.2122 24.2289 29.1608 24.1407C29.141 24.1066 29.1126 24.078 29.0783 24.0576C28.9695 23.9975 28.9627 23.9167 29.0118 23.8177C29.0399 23.7607 29.0878 23.7152 29.1472 23.6889C29.2065 23.6626 29.2735 23.6574 29.3365 23.674C29.4432 23.7008 29.5238 23.7547 29.5175 23.8782C29.5175 23.8993 29.5175 23.9209 29.5175 23.9585C29.5355 24.0674 29.4869 24.1519 29.3636 24.1965L29.3666 24.196ZM31.6711 26.5364H31.3197V23.8684C31.3197 23.8383 31.3197 23.8083 31.3197 23.7782C31.3153 23.6289 31.2401 23.5374 31.1197 23.5332C30.9993 23.5289 30.9081 23.627 30.9081 23.7792C30.9081 24.6449 30.9081 25.5106 30.9081 26.3763V26.5387H29.9373V21.9215H30.9081V22.2008C30.9081 22.3989 30.9052 22.597 30.9081 22.7951C30.911 22.9318 30.9969 23.021 31.1134 23.0205C31.2299 23.02 31.3158 22.9313 31.3182 22.7942C31.3221 22.5529 31.3182 22.3116 31.3182 22.0703V21.9224H31.6696L31.6711 26.5364ZM32.5879 26.249C32.5879 26.4997 32.5394 26.5472 32.2749 26.5472H32.1026V22.5919C32.3324 22.8004 32.4894 23.0729 32.552 23.3717C32.576 23.4985 32.5873 23.6272 32.5855 23.7562C32.5879 24.5871 32.5879 25.4181 32.5879 26.249Z" fill="#FF440D"/>
<path d="M22.5576 23.5922C22.5731 23.4659 22.5897 23.3392 22.6062 23.2129C22.5835 23.3038 22.5692 23.3965 22.5634 23.4899C22.5605 23.5242 22.5591 23.5598 22.5576 23.5922Z" fill="#FF440D"/>
<path d="M27.7627 20.4996C27.4861 20.4991 27.2198 20.3977 27.0172 20.2156C26.9061 20.1184 26.8905 20.0137 26.9687 19.9217C27.0468 19.8297 27.1696 19.8301 27.2861 19.9217C27.6011 20.1719 27.937 20.1714 28.2534 19.9217C28.3665 19.832 28.4816 19.8278 28.5621 19.9123C28.65 20.0038 28.6374 20.116 28.5218 20.2165C28.3152 20.4007 28.0438 20.5019 27.7627 20.4996Z" fill="#FF440D"/>
<path d="M26.6777 18.7463C26.4484 18.7508 26.2264 18.6682 26.0593 18.5162C25.9622 18.4313 25.9472 18.3134 26.0166 18.2299C26.086 18.1463 26.2107 18.136 26.3233 18.2205C26.5777 18.4083 26.7742 18.4083 27.0344 18.2153C27.1407 18.1364 27.2557 18.1411 27.3309 18.2266C27.4062 18.312 27.3911 18.4275 27.2945 18.5134C27.1285 18.6663 26.9069 18.75 26.6777 18.7463Z" fill="#FF440D"/>
<path d="M28.7889 18.7477C28.6214 18.7477 28.4161 18.6679 28.2428 18.513C28.1457 18.4266 28.1356 18.3087 28.2103 18.2266C28.285 18.1444 28.3981 18.1383 28.5069 18.2181C28.7675 18.4097 28.9616 18.4106 29.2179 18.2181C29.3276 18.1369 29.4373 18.1383 29.5154 18.2219C29.5936 18.3055 29.5785 18.427 29.4786 18.5186C29.3194 18.6651 29.0932 18.7491 28.7889 18.7477Z" fill="#FF440D"/>
<path d="M27.719 19.2402C27.7579 19.2547 27.7967 19.2684 27.835 19.2834C27.9394 19.3247 27.9879 19.3993 27.9641 19.5073C27.9404 19.6153 27.8579 19.6632 27.7486 19.6613C27.6366 19.6556 27.5307 19.6102 27.4511 19.5337C27.3715 19.4572 27.3238 19.3551 27.3172 19.2468C27.3105 19.1363 27.3477 19.0276 27.4212 18.9428C27.4946 18.858 27.5987 18.8035 27.7122 18.7904C27.8511 18.7759 27.9409 18.8294 27.9661 18.9411C27.9899 19.0454 27.9316 19.1289 27.8069 19.1731C27.7773 19.1834 27.7486 19.1965 27.719 19.2083V19.2402Z" fill="#FF440D"/>
<path d="M27.7766 17.9112C27.7228 17.9111 27.6711 17.8911 27.632 17.8553C27.593 17.8195 27.5695 17.7707 27.5664 17.7187C27.5678 17.6687 27.5889 17.621 27.6254 17.5854C27.6619 17.5499 27.7111 17.5291 27.7629 17.5275C27.8147 17.5258 27.8652 17.5433 27.9041 17.5764C27.9429 17.6095 27.9673 17.6557 27.9722 17.7056C27.9732 17.7576 27.9534 17.808 27.917 17.8463C27.8805 17.8846 27.8303 17.9079 27.7766 17.9112Z" fill="#FF440D"/>
<path d="M12.1688 26.6344C12.0965 26.8194 11.8417 26.8729 11.7252 26.6903C11.695 26.642 11.6696 26.5911 11.6495 26.5382H11.398V25.7805C11.3893 25.7035 11.3835 25.6265 11.3801 25.5495C11.3689 25.4819 11.3582 25.4143 11.3495 25.3462C11.3414 25.297 11.3528 25.2467 11.3815 25.2053C11.3849 25.1316 11.3908 25.0579 11.398 24.9842V24.7913C11.3961 24.7876 11.3943 24.7839 11.3927 24.78C11.3621 24.7044 11.3471 24.6256 11.3238 24.5481C11.3108 24.5113 11.3084 24.4718 11.317 24.4338C11.3255 24.3958 11.3447 24.3608 11.3723 24.3326C11.35 23.88 11.3068 23.4284 11.3286 22.974C11.3363 22.7711 11.3596 22.5692 11.3985 22.3697V21.9223H11.5441C11.5761 21.8556 11.6134 21.7914 11.6558 21.7303C11.69 21.6546 11.7323 21.5825 11.782 21.5153H11.367C11.3068 21.5113 11.2466 21.5214 11.1912 21.5446C11.1359 21.5678 11.0872 21.6034 11.0491 21.6486C11.0248 21.6734 10.9974 21.6952 10.9675 21.7134C10.8321 21.8134 10.6763 21.7552 10.5283 21.7637C10.3953 21.7716 10.2783 21.6482 10.2778 21.5191V21.3637C11.0059 21.1186 11.4674 20.6397 11.6708 19.9426C11.8494 19.9233 12.0222 19.9257 12.1829 19.8839C12.9036 19.6961 13.1983 18.721 12.6915 18.1539C12.5508 17.9961 12.5018 17.8506 12.5202 17.6614C12.5224 17.627 12.5224 17.5925 12.5202 17.5581C12.494 16.5906 12.0494 15.8582 11.1995 15.3516C11.1429 15.315 11.1003 15.2614 11.0782 15.199C10.9908 14.9231 10.8556 14.6635 10.6782 14.4315C10.1793 13.7944 9.38281 13.5385 8.66641 13.7944C7.99127 14.039 7.60832 14.5408 7.39767 15.1831C7.38736 15.2213 7.36914 15.257 7.34411 15.2882C7.31908 15.3193 7.28776 15.3452 7.25206 15.3643C6.76715 15.6372 6.38556 16.0533 6.16339 16.5516C5.97458 16.9628 5.93041 17.3966 5.94983 17.8389C5.95519 17.8806 5.94934 17.9229 5.93284 17.9618C5.91635 18.0007 5.88977 18.0349 5.85567 18.0609C5.43631 18.4051 5.45621 19.2562 5.79597 19.598C5.90726 19.713 6.04414 19.802 6.19626 19.8583C6.34838 19.9146 6.51175 19.9367 6.67399 19.9229C6.76767 19.9177 6.80116 19.9496 6.82882 20.0341C7.03316 20.6609 7.4564 21.0914 8.09077 21.3256C8.18784 21.3613 8.23249 21.5932 8.15386 21.6576C7.99855 21.7857 7.67627 21.8097 7.48795 21.7092C7.26419 21.59 7.04044 21.5956 6.81183 21.704C6.73792 21.7388 6.65755 21.7589 6.57546 21.7632C6.27357 21.7782 5.96827 21.7604 5.66977 21.7965C4.82039 21.8998 4.07293 22.6636 4.02536 23.4894C3.99575 24.0059 4.00934 24.5223 4.00449 25.0387C4.00515 25.0645 4.00873 25.0902 4.01517 25.1152C4.02264 25.1584 4.04602 25.1976 4.08098 25.2254C4.11594 25.2533 4.16014 25.268 4.20543 25.2669C4.25035 25.2696 4.29478 25.2566 4.33048 25.23C4.36619 25.2035 4.39074 25.1654 4.39958 25.1227C4.40999 25.0765 4.41456 25.0292 4.41317 24.9819C4.41317 24.5556 4.41608 24.1289 4.41317 23.7026C4.40809 23.4779 4.45798 23.2553 4.55878 23.0528C4.93784 22.3078 5.62658 22.0787 6.46043 22.1665C6.43422 22.4275 6.51333 22.6486 6.72641 22.8204C6.7365 22.8348 6.7432 22.8511 6.74606 22.8682C6.74891 22.8853 6.74783 22.9028 6.74291 22.9195C6.66186 23.234 6.74728 23.4782 7.00404 23.6763C7.02189 23.6915 7.03608 23.7103 7.04564 23.7314C7.0552 23.7525 7.05988 23.7753 7.05937 23.7983C6.99967 24.1861 7.1977 24.4913 7.58745 24.5866C7.61923 24.5914 7.64847 24.6063 7.6706 24.6289C7.69273 24.6515 7.7065 24.6805 7.70976 24.7115C7.73001 24.7998 7.7689 24.8831 7.824 24.9563C7.87909 25.0294 7.94921 25.0907 8.02994 25.1364C8.11068 25.1821 8.20031 25.2112 8.29321 25.2219C8.38611 25.2325 8.48028 25.2245 8.56982 25.1983C8.60322 25.1857 8.63985 25.1834 8.67464 25.1918C8.70942 25.2002 8.74064 25.2189 8.76397 25.2453C8.88946 25.3611 9.05623 25.4257 9.22967 25.4257C9.40311 25.4257 9.56989 25.3611 9.69538 25.2453C9.72118 25.2178 9.75522 25.1988 9.79274 25.191C9.83025 25.1831 9.86935 25.1869 9.90457 25.2016C10.2691 25.3025 10.6613 25.0917 10.7447 24.7373C10.7768 24.6016 10.8491 24.5814 10.967 24.5828V26.5405H6.17067V26.3823C6.17067 25.7107 6.17067 25.0388 6.17067 24.3669C6.17167 24.3199 6.17005 24.2729 6.16581 24.226C6.16519 24.202 6.15966 24.1784 6.14955 24.1564C6.13944 24.1345 6.12494 24.1147 6.1069 24.0982C6.08886 24.0818 6.06762 24.0689 6.04441 24.0603C6.0212 24.0518 5.99648 24.0478 5.97167 24.0486C5.86004 24.0448 5.79014 24.112 5.76685 24.2166C5.7606 24.2592 5.75897 24.3024 5.76199 24.3453C5.76199 25.0301 5.76199 25.715 5.76199 26.4002V26.5476C5.36836 26.5476 4.99075 26.5504 4.61314 26.5476C4.48985 26.5476 4.41899 26.4682 4.41899 26.3466C4.41899 26.225 4.42336 26.0964 4.41317 25.9711C4.41319 25.9458 4.40792 25.9207 4.39768 25.8974C4.38744 25.8741 4.37244 25.8531 4.35358 25.8355C4.33473 25.818 4.3124 25.8043 4.28794 25.7954C4.26348 25.7864 4.2374 25.7823 4.21125 25.7833C4.09331 25.7833 4.02196 25.8546 4.01031 25.9711C4.00255 26.0476 4.01031 26.126 4.00498 26.203C3.97877 26.5588 4.12195 26.8133 4.47723 26.9358H12.7197C12.7173 26.8889 12.7153 26.8443 12.7143 26.7983C12.5318 26.7438 12.3484 26.6861 12.1688 26.6344ZM10.968 22.8786V23.2965C10.8709 23.2965 10.7962 23.28 10.7816 23.1716C10.7637 23.0397 10.8214 22.942 10.968 22.8801V22.8786ZM12.3969 18.4102C12.5479 18.6112 12.5619 19.0431 12.4246 19.2581C12.2872 19.4731 12.0494 19.5632 11.7295 19.5125V18.1957C11.8502 18.1633 11.9781 18.1665 12.097 18.2047C12.2158 18.2429 12.3202 18.3144 12.3969 18.4102ZM9.227 14.0883C9.80459 14.0845 10.4496 14.5577 10.5952 15.1028C10.1409 14.9789 9.68276 15.0155 9.227 15.0155C8.77125 15.0155 8.31986 14.9789 7.87138 15.1042C8.01262 14.5648 8.65185 14.092 9.22603 14.0883H9.227ZM6.73563 19.5088C6.45121 19.5684 6.20173 19.4848 6.05903 19.2839C5.91634 19.083 5.90712 18.6501 6.05175 18.4356C6.19105 18.2285 6.44005 18.1379 6.73563 18.1914V19.5088ZM7.14722 19.4881C7.14722 18.928 7.14722 18.3684 7.14722 17.8084C7.14722 17.3962 7.44281 17.1126 7.86944 17.1103C7.95438 17.1103 8.03883 17.1131 8.12329 17.1103C8.25288 17.1051 8.34267 17.0201 8.34024 16.9107C8.34035 16.8846 8.33482 16.8588 8.32402 16.8349C8.31322 16.8109 8.29738 16.7895 8.27751 16.7718C8.25764 16.7541 8.23419 16.7406 8.20863 16.7322C8.18308 16.7238 8.156 16.7207 8.12911 16.7229C7.92574 16.729 7.71461 16.7201 7.52095 16.7699C7.07442 16.884 6.77834 17.2666 6.74437 17.7173C6.74437 17.7337 6.73951 17.7506 6.73418 17.7858H6.35414C6.32951 17.5078 6.35831 17.2279 6.43907 16.96C6.57326 16.5123 6.85395 16.1187 7.239 15.8384C7.62406 15.558 8.09272 15.406 8.57468 15.4051C9.02461 15.4051 9.47405 15.4028 9.92399 15.4051C11.0316 15.4122 11.9848 16.253 12.0965 17.321C12.1125 17.4746 12.1154 17.629 12.1251 17.7868H11.7329C11.7203 17.7051 11.714 17.629 11.6965 17.5558C11.581 17.068 11.1753 16.7342 10.6613 16.7239C10.1473 16.7136 9.61918 16.7192 9.09838 16.7206C8.95277 16.7206 8.86492 16.8028 8.86832 16.9178C8.87172 17.0328 8.96539 17.1093 9.10712 17.1098C9.60122 17.1098 10.0958 17.1098 10.5899 17.1098C11.0267 17.1098 11.318 17.3938 11.318 17.814C11.318 18.3608 11.318 18.9085 11.318 19.4571C11.323 19.873 11.1571 20.2738 10.8568 20.5715C10.5564 20.8691 10.1462 21.0392 9.71625 21.0444C9.29884 21.0524 8.87512 21.0688 8.4645 21.0106C7.71073 20.9031 7.15013 20.2261 7.14722 19.4881ZM8.59069 21.5111C8.5912 21.4885 8.59299 21.4659 8.59603 21.4435H9.87545C9.86863 21.5201 9.86961 21.5971 9.87836 21.6735C9.90628 21.7791 9.94015 21.8832 9.9798 21.9852C9.99097 22.02 10.0177 22.0566 10.0118 22.0881C9.95359 22.4078 9.65121 22.819 9.16827 22.7791C8.74795 22.7444 8.49653 22.3538 8.45091 22.0801C8.44823 22.0701 8.44762 22.0597 8.44912 22.0494C8.45062 22.0392 8.4542 22.0293 8.45964 22.0205C8.60622 21.8745 8.59409 21.6918 8.59069 21.5111ZM6.92687 22.4608C6.8526 22.3589 6.8361 22.2449 6.9123 22.151C6.96618 22.0829 7.05791 22.0444 7.13412 21.9923C7.30399 22.0214 7.43456 22.1331 7.43504 22.274C7.43504 22.3655 7.43019 22.4711 7.28458 22.4688C7.24876 22.4695 7.21364 22.4785 7.18217 22.4951C7.08655 22.543 6.99967 22.5613 6.92687 22.4608ZM7.20741 23.3303C7.16868 23.2949 7.14086 23.2499 7.12707 23.2002C7.11327 23.1504 7.11403 23.0979 7.12926 23.0486C7.14935 22.9868 7.19081 22.9337 7.24668 22.898C7.30255 22.8623 7.36941 22.8464 7.43601 22.8528C7.50432 22.8625 7.56685 22.8953 7.61246 22.9455C7.65807 22.9956 7.68378 23.0598 7.685 23.1265C7.685 23.2157 7.66462 23.2876 7.55201 23.2969C7.51735 23.3018 7.48421 23.314 7.45494 23.3326C7.37 23.3805 7.29137 23.4148 7.20741 23.3303ZM7.97379 24.0162C7.94331 24.0469 7.91089 24.0757 7.87672 24.1026C7.75344 24.2293 7.67384 24.2434 7.55881 24.1528C7.44378 24.0622 7.4132 23.8824 7.51367 23.7772C7.56949 23.719 7.65394 23.6871 7.72577 23.6434C7.88352 23.6674 8.00728 23.7711 8.01699 23.9096C8.01474 23.9487 7.9996 23.986 7.97379 24.0162ZM8.59457 24.4856C8.50964 24.5955 8.63729 24.827 8.38101 24.8387C8.32545 24.8387 8.27113 24.8228 8.22491 24.793C8.17869 24.7631 8.14265 24.7207 8.12135 24.6711C8.09602 24.6203 8.08838 24.5629 8.09958 24.5076C8.11078 24.4522 8.14021 24.4019 8.18347 24.3641C8.22451 24.3242 8.27732 24.2977 8.3346 24.2881C8.39189 24.2785 8.45084 24.2864 8.50333 24.3105C8.52371 24.318 8.55186 24.3293 8.5572 24.3457C8.57613 24.3927 8.6135 24.4612 8.59457 24.4852V24.4856ZM9.24205 25.0274C9.20418 25.0292 9.16634 25.0236 9.13075 25.011C9.09516 24.9983 9.06255 24.9789 9.03486 24.9539C9.00716 24.9288 8.98494 24.8987 8.96951 24.8652C8.95407 24.8317 8.94574 24.7955 8.94501 24.7589C8.94385 24.6855 8.97286 24.6148 9.02565 24.5621C9.07844 24.5095 9.1507 24.4793 9.22652 24.4781C9.30234 24.477 9.37551 24.5051 9.42994 24.5561C9.48438 24.6072 9.51561 24.6771 9.51677 24.7504C9.51769 24.8222 9.48941 24.8915 9.43802 24.9433C9.38663 24.9951 9.31625 25.0253 9.24205 25.0274ZM10.088 24.8363C9.99436 24.8363 9.91137 24.818 9.91913 24.6955C9.91732 24.6441 9.90614 24.5934 9.88613 24.5457C9.83322 24.3875 9.90651 24.2894 10.0803 24.2885C10.1542 24.2871 10.2257 24.314 10.2792 24.3635C10.3327 24.4129 10.3638 24.4808 10.3657 24.5523C10.3671 24.5885 10.3611 24.6247 10.3479 24.6586C10.3348 24.6926 10.3148 24.7236 10.2892 24.7501C10.2636 24.7765 10.2327 24.7977 10.1985 24.8125C10.1643 24.8273 10.1274 24.8354 10.09 24.8363H10.088ZM10.3404 23.381C10.1914 23.4788 10.0882 23.6294 10.0531 23.8002C10.0395 23.8716 9.99728 23.889 9.93369 23.9129C9.81902 23.9557 9.71015 24.0118 9.60947 24.08C9.58604 24.0995 9.55838 24.1135 9.52854 24.1212C9.4987 24.1288 9.46747 24.1298 9.43717 24.1242C9.29593 24.1049 9.14935 24.1242 9.00519 24.1204C8.95844 24.1196 8.91242 24.109 8.87026 24.0894C8.74892 24.0317 8.62758 23.9692 8.51158 23.9049C8.4776 23.8866 8.42955 23.8613 8.42276 23.8317C8.40209 23.7301 8.359 23.634 8.29642 23.55C8.23385 23.4659 8.15327 23.396 8.06019 23.3448C8.13057 23.0472 8.07087 22.7937 7.82382 22.5937C7.81403 22.5839 7.80657 22.5721 7.80196 22.5592C7.79735 22.5463 7.7957 22.5326 7.79712 22.519C7.81362 22.4012 7.83595 22.2843 7.85828 22.1561H8.03835C8.28103 22.834 8.69602 23.1847 9.24059 23.1768C9.78517 23.1688 10.2181 22.8012 10.4181 22.1585H10.603C10.6253 22.2824 10.6515 22.4026 10.6661 22.5242C10.6651 22.5398 10.6608 22.5551 10.6535 22.5691C10.6461 22.5831 10.6359 22.5954 10.6234 22.6054C10.4113 22.7824 10.3453 23.0054 10.3807 23.2678C10.3833 23.2883 10.3812 23.3091 10.3746 23.3288C10.368 23.3484 10.357 23.3664 10.3424 23.3815L10.3404 23.381ZM10.8258 24.196C10.7423 24.226 10.6714 24.2288 10.62 24.1406C10.6002 24.1066 10.5718 24.078 10.5375 24.0575C10.4288 23.9974 10.422 23.9167 10.4705 23.8176C10.4988 23.7607 10.5469 23.7152 10.6063 23.6889C10.6657 23.6627 10.7327 23.6574 10.7957 23.6739C10.9025 23.7007 10.9831 23.7547 10.9767 23.8782C10.9767 23.8993 10.9767 23.9209 10.9767 23.9584C10.9986 24.0674 10.9496 24.1519 10.8268 24.1965L10.8258 24.196Z" fill="#FF440D"/>
<path d="M9.22562 20.4996C8.94899 20.4991 8.68274 20.3977 8.4801 20.2156C8.36895 20.1184 8.35342 20.0137 8.43156 19.9217C8.50971 19.8297 8.6325 19.8301 8.74899 19.9217C9.06399 20.1719 9.39986 20.1714 9.71632 19.9217C9.82941 19.832 9.94444 19.8278 10.025 19.9123C10.1129 20.0038 10.0998 20.116 9.98473 20.2165C9.77806 20.4007 9.50665 20.5019 9.22562 20.4996Z" fill="#FF440D"/>
<path d="M8.14075 18.7463C7.91145 18.7508 7.68946 18.6682 7.52239 18.5162C7.42532 18.4313 7.40979 18.3134 7.47968 18.2299C7.54957 18.1463 7.67383 18.136 7.78643 18.2205C8.04076 18.4083 8.23685 18.4083 8.49749 18.2153C8.60378 18.1364 8.71882 18.1411 8.79405 18.2266C8.86928 18.312 8.85423 18.4275 8.75764 18.5134C8.59157 18.6663 8.37 18.75 8.14075 18.7463Z" fill="#FF440D"/>
<path d="M10.2517 18.7477C10.0843 18.7477 9.87899 18.6679 9.70571 18.513C9.60864 18.4266 9.59845 18.3087 9.67319 18.2266C9.74794 18.1444 9.86103 18.1383 9.96975 18.2181C10.2304 18.4097 10.4245 18.4106 10.6808 18.2181C10.7905 18.1369 10.9002 18.1383 10.9783 18.2219C11.0565 18.3055 11.0414 18.427 10.9414 18.5186C10.7822 18.6651 10.5522 18.7491 10.2517 18.7477Z" fill="#FF440D"/>
<path d="M9.18196 19.2402C9.22079 19.2547 9.25961 19.2684 9.29796 19.2834C9.40231 19.3247 9.45085 19.3993 9.42706 19.5073C9.40328 19.6153 9.32077 19.6632 9.21156 19.6613C9.09953 19.6556 8.99359 19.6102 8.914 19.5337C8.8344 19.4572 8.78672 19.3551 8.78007 19.2468C8.77334 19.1363 8.8105 19.0275 8.88394 18.9427C8.95738 18.8579 9.06156 18.8034 9.17516 18.7904C9.31398 18.7759 9.40377 18.8294 9.42901 18.9411C9.45279 19.0454 9.39455 19.1289 9.26981 19.1731C9.2402 19.1834 9.21108 19.1965 9.18196 19.2083V19.2402Z" fill="#FF440D"/>
<path d="M9.23897 17.9112C9.18524 17.9111 9.13359 17.891 9.09461 17.8553C9.05563 17.8195 9.03227 17.7706 9.0293 17.7187C9.03069 17.6687 9.05181 17.621 9.08832 17.5854C9.12484 17.5499 9.174 17.5291 9.22578 17.5275C9.27756 17.5258 9.32805 17.5433 9.36695 17.5764C9.40584 17.6095 9.4302 17.6557 9.43506 17.7056C9.43592 17.7577 9.41604 17.8081 9.37954 17.8463C9.34303 17.8846 9.2927 17.9079 9.23897 17.9112Z" fill="#FF440D"/>
<path d="M11.6641 24.4229H11.1045V26.0087H11.6641V24.4229Z" fill="#FF440D"/>
</g>
<defs>
<clipPath id="clip0_879_197">
<rect width="29" height="18" fill="white" transform="translate(4 9)"/>
</clipPath>
</defs>
</svg>
