<svg width="37" height="37" viewBox="0 0 37 37" fill="none" xmlns="http://www.w3.org/2000/svg">
<circle cx="18.5" cy="18.5" r="18.5" fill="white"/>
<path d="M10.5595 31.5263C10.2756 31.3512 10.1808 31.1035 10.1912 30.7651C10.214 30.0233 10.1801 29.2801 10.2036 28.5383C10.2376 27.4719 10.6114 26.5231 11.285 25.6478L12.1531 26.3398C11.7094 26.921 11.3916 27.5563 11.3466 28.2774C11.3002 28.9694 11.3362 29.6724 11.3362 30.4018C11.4055 30.4067 11.4872 30.417 11.5695 30.417C12.4328 30.417 13.2968 30.4212 14.1601 30.4129C14.2775 30.4171 14.3928 30.3804 14.4862 30.3091C15.4208 29.3887 16.3464 28.458 17.2733 27.5293C17.2896 27.5069 17.3028 27.4825 17.3128 27.4567C16.174 26.9723 15.4678 26.1287 15.2055 24.8997C14.2286 24.8997 13.3716 25.227 12.6101 25.8637C12.3636 25.5869 12.1255 25.3163 11.8825 25.0423C13.141 23.8908 14.6516 23.6929 16.2667 23.8029C16.2667 23.2576 16.2723 22.7587 16.2598 22.2604C16.2598 22.2002 16.1712 22.122 16.1061 22.0874C14.8856 21.3954 14.0715 20.3747 13.6886 19.0232C13.6423 18.8592 13.5689 18.835 13.4235 18.8219C12.1081 18.7028 11.4013 17.2849 12.1511 16.2283C12.3345 15.9701 12.617 15.7826 12.86 15.5577C12.2369 14.674 12.2251 13.2969 12.86 12.3219C12.9324 12.2078 12.9846 12.0821 13.0144 11.9503C13.3238 10.585 14.2016 9.68539 15.3965 9.05221C15.7143 8.88336 16.0549 8.75741 16.4073 8.60171C16.1664 8.16506 16.2889 7.73187 16.4765 7.3056C16.7365 6.68391 17.0974 6.10942 17.5447 5.60534C17.6712 5.46416 17.8103 5.3347 17.9601 5.21852C18.3443 4.92719 18.6711 4.92165 19.0394 5.23513C19.825 5.90686 20.3882 6.80113 20.6545 7.79969C20.7237 8.04742 20.6545 8.33391 20.6441 8.637C20.8809 8.73804 21.1979 8.85221 21.4935 9.00445C22.6414 9.59404 23.531 10.4231 23.893 11.7033C23.9697 11.9912 24.083 12.2682 24.2302 12.5274C24.6359 13.2277 24.6414 14.0007 24.5182 14.7661C24.4704 15.0629 24.262 15.3342 24.1229 15.6269C24.3473 15.7243 24.5475 15.8701 24.7091 16.0539C24.8707 16.2376 24.9896 16.4548 25.0575 16.6898C25.3579 17.7105 24.6601 18.7146 23.5739 18.8156C23.4001 18.8316 23.3288 18.8752 23.2783 19.0495C22.8975 20.3706 22.1062 21.376 20.9072 22.0528C20.7611 22.1352 20.6995 22.2203 20.705 22.3926C20.7189 22.8466 20.7099 23.3019 20.7099 23.8043C21.2125 23.8043 21.686 23.7835 22.1581 23.8077C24.325 23.9192 26.2634 25.5862 26.6622 27.721C26.7716 28.3078 26.7529 28.9209 26.7764 29.5202C26.7923 29.9354 26.7598 30.3506 26.7854 30.7658C26.8062 31.1021 26.703 31.3506 26.4178 31.527L10.5595 31.5263ZM22.4053 16.5791L22.3534 16.5749C22.3534 16.1258 22.3305 15.6753 22.3596 15.2297C22.3901 14.7647 22.1755 14.4685 21.8155 14.2208C21.2409 13.8284 20.6026 13.8152 19.9504 13.8796C19.5267 13.9218 19.1266 14.018 18.7811 14.3066C18.588 14.4678 18.3353 14.4387 18.1359 14.2692C17.8747 14.0537 17.5513 13.9276 17.2131 13.9094C16.9043 13.8824 16.5942 13.8595 16.2847 13.8602C15.7413 13.8602 15.283 14.0865 14.887 14.4443C14.7975 14.5257 14.7272 14.626 14.6813 14.7379C14.6353 14.8498 14.6148 14.9705 14.6212 15.0913C14.6274 15.9452 14.6212 16.7998 14.6267 17.6517C14.6279 17.9099 14.6511 18.1676 14.6959 18.4219C14.8561 19.2897 15.3091 20.0764 15.9793 20.6507C16.6495 21.2251 17.4965 21.5524 18.3789 21.5781C20.1789 21.6314 21.8134 20.4218 22.2142 18.6537C22.3693 17.9832 22.3485 17.2718 22.4067 16.5784L22.4053 16.5791ZM23.8903 25.5467C23.8727 25.521 23.8517 25.4977 23.828 25.4775C23.7629 25.4353 23.6957 25.3959 23.6279 25.3592C23.0405 25.0423 22.3802 24.885 21.713 24.9032C21.5731 24.9079 21.4392 24.9613 21.3343 25.054C19.6128 26.761 17.8957 28.4744 16.183 30.1942C16.1269 30.251 16.075 30.3126 16.0009 30.3949C16.0466 30.405 16.0928 30.4121 16.1394 30.4163C17.6852 30.4163 19.2304 30.4205 20.7777 30.4101C20.8333 30.4026 20.8866 30.3835 20.9343 30.354C20.982 30.3246 21.023 30.2855 21.0546 30.2392C21.3073 29.8524 21.5392 29.4524 21.7885 29.0434L22.7348 29.6164L22.2765 30.3997H25.6688C25.6826 28.9548 25.8571 27.4933 24.7549 26.2893L23.4043 28.5175L22.4551 27.9397L23.8903 25.5467ZM14.6295 11.1095C14.6633 11.1151 14.6976 11.1179 14.7319 11.1178C15.9019 11.0043 17.0587 11.0251 18.1629 11.4936C18.2688 11.5386 18.3827 11.5615 18.4977 11.5609C18.6127 11.5603 18.7263 11.5362 18.8317 11.4901C19.5046 11.241 20.1886 11.0438 20.9203 11.0701C21.3904 11.0867 21.8618 11.0701 22.3146 11.0701C20.7715 8.92765 16.3242 8.85152 14.6295 11.1095ZM16.3498 24.8949C16.6309 25.7703 17.1806 26.2934 18.0314 26.4962C18.1276 26.5197 18.2779 26.5135 18.3395 26.454C18.8774 25.937 19.4001 25.4049 19.9317 24.8693C19.6583 24.7108 19.5752 24.4845 19.5794 24.2036C19.5877 23.6638 19.5794 23.1247 19.5794 22.6369H17.3986C17.3986 22.6562 17.3889 22.7234 17.3883 22.7912C17.3883 23.2652 17.3883 23.7399 17.3883 24.2139C17.3883 24.688 17.1806 24.8935 16.7153 24.8949H16.3498ZM13.4955 14.4609L13.5737 14.4789C13.7323 14.0565 14.0119 13.6902 14.3775 13.4256C15.5433 12.5662 16.813 12.5662 18.1159 13.0104C18.3503 13.1014 18.6101 13.1029 18.8455 13.0146C20.1609 12.5634 21.4361 12.5655 22.6095 13.4298C22.9696 13.702 23.2542 14.0617 23.4361 14.4747C23.4646 14.2373 23.4724 13.9979 23.4597 13.7592C23.405 12.9724 22.8594 12.3136 22.0896 12.2292C21.4802 12.1642 20.8653 12.1696 20.2571 12.2451C19.778 12.3039 19.3156 12.5081 18.8511 12.6603C18.6012 12.7433 18.3665 12.7586 18.1221 12.6506C17.1529 12.2167 16.1297 12.1427 15.085 12.196C14.3595 12.2326 13.6956 12.7696 13.5682 13.4879C13.5114 13.8076 13.5176 14.137 13.4955 14.4609ZM18.4911 6.215C18.0172 6.71894 17.6547 7.31685 17.427 7.96991C17.4097 8.01835 17.4873 8.14914 17.5454 8.16852C17.7309 8.23149 17.9289 8.29724 18.1207 8.29378C18.5361 8.28616 18.9577 8.24533 19.3737 8.19689C19.4748 8.18513 19.6264 8.13669 19.5572 7.95539C19.3188 7.3113 18.9566 6.72007 18.4911 6.215ZM13.5017 17.6898V16.6241C13.1404 16.6829 12.9631 16.876 12.9749 17.1839C12.9867 17.4752 13.1667 17.6538 13.5017 17.6898ZM23.4763 17.6898C23.8079 17.6662 24.0024 17.4704 24.0052 17.1694C24.0079 16.8684 23.8106 16.6608 23.4763 16.6386V17.6898Z" fill="#FF440D"/>
<path d="M13.2865 23.3498L12.6752 24.2729C9.58273 22.0481 7.91154 19.078 8.00361 15.2872C8.10192 11.2044 10.1026 8.19493 13.6631 6.14453L14.1733 7.13479C11.1168 8.87863 9.32243 11.4563 9.12581 14.9779C8.9292 18.4995 10.4211 21.2648 13.2865 23.3498Z" fill="#FF440D"/>
<path d="M21.585 6.61771C21.7075 6.27171 21.8231 5.93886 21.9533 5.56934C25.2998 6.8613 27.5608 9.15874 28.5771 12.5862C29.6917 16.3341 28.5439 20.5152 25.8142 23.0271L24.9966 22.295C30.0551 17.4005 28.1576 8.95183 21.585 6.61771Z" fill="#FF440D"/>
<path d="M14.831 6.84138C14.6835 6.49538 14.5471 6.17361 14.3955 5.81792L15.5676 5.39648C15.6749 5.76255 15.7752 6.10441 15.8805 6.46632L14.831 6.84138Z" fill="#FF440D"/>
<path d="M25.1009 23.6726L24.3276 24.2428L23.7129 23.3211L24.4052 22.8076L25.1009 23.6726Z" fill="#FF440D"/>
<path d="M17.9473 14.9629H19.0328V16.0355H17.9473V14.9629Z" fill="#FF440D"/>
</svg>
