<svg width="37" height="37" viewBox="0 0 37 37" fill="none" xmlns="http://www.w3.org/2000/svg">
<circle cx="18.5" cy="18.5" r="18.5" fill="white"/>
<g clip-path="url(#clip0_879_196)">
<path d="M12.3948 17.564L12.255 17.233C11.5835 17.233 10.9182 17.2829 10.2621 17.224C8.21391 17.0405 6.77579 15.529 6.67587 13.4947C6.6542 13.0815 6.657 12.6674 6.68425 12.2546C6.69334 12.1258 6.80235 11.9374 6.91345 11.8924C8.11468 11.3994 9.35014 11.1661 10.6366 11.5331C12.03 11.9312 12.9992 13.0945 13.1767 14.5194C13.2642 15.163 13.2042 15.8179 13.0013 16.4354C12.8972 16.7449 12.9154 17.0011 13.1096 17.2877C13.5876 17.1035 14.0838 16.9263 14.568 16.722C15.148 16.4776 15.7678 16.5358 16.3702 16.4665C16.8985 16.4049 17.4303 16.3758 17.9614 16.3391C18.1256 16.3273 18.171 16.256 18.2206 16.0947C18.3785 15.5837 18.2506 15.1759 17.962 14.7299C17.417 13.888 17.1235 12.9511 17.2039 11.9305C17.2968 10.7368 17.8985 9.82974 18.853 9.14356C20.1451 8.21435 21.6167 7.91384 23.1855 8.02047C23.2482 8.02945 23.3081 8.05197 23.3609 8.08643C23.4138 8.12089 23.4584 8.16645 23.4916 8.21989C24.2833 9.87129 24.5076 11.5435 23.5098 13.1886C22.7376 14.462 21.5273 15.1433 20.0941 15.4681C19.7558 15.5449 19.4085 15.583 19.0459 15.6418C19.0102 15.8316 18.976 16.0248 18.9313 16.2532C19.1605 16.2359 19.3736 16.2207 19.586 16.2034C20.795 16.1037 22.0039 16.0074 23.2114 15.8994C23.3377 15.8857 23.4569 15.8348 23.5538 15.7533C25.4135 14.1308 27.27 12.5048 29.1231 10.8753C29.2108 10.7914 29.3042 10.7137 29.4027 10.6426C29.4553 10.6037 29.5176 10.5797 29.583 10.5731C29.6483 10.5665 29.7142 10.5776 29.7737 10.6051C29.8332 10.6327 29.8841 10.6757 29.9209 10.7296C29.9577 10.7835 29.979 10.8463 29.9827 10.9113C29.9877 10.9716 29.9888 11.0322 29.9862 11.0927C29.9862 12.4831 29.9806 13.8734 29.9917 15.2638C29.9983 15.3748 29.9749 15.4856 29.9241 15.5847C29.8733 15.6839 29.7968 15.7678 29.7024 15.8281C28.3831 16.7933 27.0512 17.7426 25.7627 18.7466C25.2826 19.1205 24.8983 19.6191 24.4867 20.0761C23.3539 21.3335 22.2345 22.6027 21.0975 23.8559C20.9549 24.0021 20.779 24.1123 20.5846 24.1772C20.101 24.3468 19.6028 24.4756 19.1172 24.639C19.0102 24.6793 18.9237 24.76 18.8768 24.8634C18.6042 25.5897 18.3471 26.3223 18.0899 27.0542C18.0574 27.1518 18.0406 27.2539 18.0403 27.3568C18.0347 27.7535 18.0403 28.151 18.0403 28.5484C18.0403 28.8531 17.911 29.0061 17.6665 29.0033C17.4219 29.0005 17.3101 28.8572 17.3073 28.5629C17.3073 28.2957 17.3073 28.0284 17.3073 27.7224C17.206 27.7653 17.1291 27.7916 17.055 27.8304C16.2011 28.2424 15.3472 28.653 14.4953 29.0698C14.2857 29.1716 14.1068 29.166 13.9657 28.9715C13.8245 28.7769 13.9056 28.5429 14.1795 28.4092C15.1578 27.9322 16.1319 27.453 17.1144 26.9884C17.2009 26.9519 17.2781 26.8967 17.3404 26.8268C17.4026 26.757 17.4484 26.6743 17.4743 26.5847C17.6504 26.0536 17.8461 25.5281 18.0508 24.9513C17.6399 25.0753 17.2668 25.2034 16.8838 25.2975C16.6267 25.3598 16.3485 25.427 16.0928 25.3931C15.8578 25.3569 15.6424 25.2422 15.4822 25.068C15.3221 24.8938 15.2269 24.6707 15.2123 24.4355C15.1767 23.8899 15.4457 23.4606 15.9663 23.2992C17.0962 22.9475 18.2318 22.6165 19.3624 22.2682C19.4847 22.2351 19.5938 22.1655 19.6748 22.0688C20.3931 21.0496 21.1003 20.022 21.8096 18.9966C21.8375 18.9564 21.8592 18.9121 21.9228 18.802C21.3204 18.802 20.7691 18.8463 20.2282 18.7902C19.593 18.721 19.122 18.8996 18.7014 19.3843C18.2807 19.869 17.7929 20.2692 17.3289 20.6999C17.2292 20.7949 17.112 20.8701 16.9837 20.9215C16.2849 21.1805 15.5771 21.429 14.8713 21.6776C14.5778 21.7815 14.3584 21.7032 14.2857 21.4803C14.213 21.2573 14.3367 21.0842 14.6204 20.9831C15.2591 20.7546 15.9013 20.5351 16.5372 20.2997C16.6837 20.2494 16.8171 20.1676 16.9278 20.0601C17.3324 19.6301 17.7203 19.1842 18.1158 18.7445L18.2143 18.8138C18.1621 18.8015 18.1091 18.793 18.0557 18.7882C17.2528 18.775 16.4485 18.7584 15.6463 18.7549C15.4907 18.7553 15.3366 18.7837 15.1913 18.8387C12.6817 19.7984 10.1738 20.7625 7.66745 21.7309C7.20136 21.9109 6.76322 21.9248 6.37119 21.5786C5.74228 21.0247 5.93235 20.0553 6.73107 19.7423C8.00357 19.2465 9.28026 18.7632 10.5556 18.2737L12.3948 17.564ZM29.2601 11.7595C29.1525 11.8467 29.0917 11.8924 29.0344 11.9423C27.3224 13.4434 25.6094 14.9437 23.8955 16.443C23.7843 16.5355 23.6488 16.5946 23.5049 16.6133C22.9682 16.6756 22.428 16.7179 21.8893 16.7608C19.8628 16.9221 17.8363 17.0786 15.8098 17.2455C15.5093 17.2704 15.1934 17.2919 14.916 17.3957C12.9594 18.129 11.0161 18.8837 9.06783 19.6315C8.39419 19.89 7.72056 20.149 7.04692 20.4084C6.88061 20.4728 6.74085 20.5864 6.78418 20.774C6.81143 20.8903 6.90716 21.0364 7.00989 21.078C7.11261 21.1195 7.28032 21.078 7.40191 21.035C9.95297 20.0601 12.5031 19.0827 15.0523 18.1027C15.1807 18.0512 15.3177 18.0238 15.4562 18.0217C17.7967 18.0424 20.1369 18.0671 22.4769 18.0958C22.6642 18.0958 22.8515 18.1006 22.9556 18.2924C23.0653 18.4946 22.9556 18.6531 22.8438 18.8138C22.1129 19.8663 21.3484 20.8993 20.6678 21.983C20.2667 22.6207 19.7635 22.9828 19.0305 23.1601C18.1004 23.3809 17.1941 23.696 16.2787 23.9743C15.9705 24.0678 15.8552 24.3268 16.0222 24.5428C16.1452 24.7021 16.3073 24.7124 16.4925 24.657C17.7748 24.27 19.0592 23.8892 20.3407 23.4993C20.4384 23.4667 20.5258 23.4094 20.5944 23.3332C21.6845 22.1194 22.7641 20.8966 23.8598 19.6876C24.349 19.1489 24.8144 18.5735 25.3797 18.1248C26.5775 17.1748 27.8339 16.2976 29.0631 15.3857C29.1448 15.3247 29.2517 15.2229 29.2524 15.1399C29.2643 14.0306 29.2601 12.9269 29.2601 11.7595ZM19.2234 14.8857C19.5728 14.8165 19.8697 14.7736 20.1611 14.6981C22.9228 13.9842 24.1443 11.5019 23.0031 8.91507C22.9696 8.8389 22.8683 8.73989 22.7935 8.73781C21.3798 8.70942 20.0717 9.03209 18.9872 9.97654C17.5896 11.1896 17.6902 12.9615 18.6 14.3263C18.6301 14.2369 18.6566 14.1594 18.6818 14.0818C18.9956 13.0993 19.3932 12.1507 19.992 11.3046C20.3456 10.8047 20.7607 10.3463 21.1611 9.88098C21.3058 9.71411 21.5063 9.71273 21.6733 9.86298C21.8403 10.0132 21.8368 10.196 21.6999 10.3719C21.6573 10.4259 21.6042 10.4723 21.5559 10.5222C20.3806 11.736 19.6867 13.2046 19.2234 14.8857ZM11.9091 16.5351C10.791 14.7791 9.22646 13.6553 7.37955 12.7586C7.4096 13.1346 7.41659 13.4511 7.46271 13.7661C7.5829 14.5873 7.90015 15.3178 8.59405 15.824C9.56537 16.5302 10.6848 16.6078 11.9091 16.5351ZM12.3633 15.8655C12.6428 14.8844 12.3871 13.5646 11.4884 12.7933C10.5625 11.9991 9.01402 11.952 8.21111 12.2677C8.94344 12.769 9.72819 13.2676 10.4689 13.8236C11.2096 14.3796 11.8281 15.0817 12.3633 15.8655Z" fill="#F1400B"/>
<path d="M22.5463 27.1034C22.5414 24.957 23.6644 23.451 25.7608 22.7883C26.3442 22.6035 26.9634 22.5238 27.5699 22.4144C27.7691 22.3791 27.9116 22.3452 27.9193 22.1022C27.9291 21.7843 27.9766 21.4679 27.9941 21.1501C28.0095 20.8572 28.1192 20.7118 28.3561 20.709C28.593 20.7063 28.7453 20.8655 28.7313 21.1397C28.709 21.5773 28.6468 22.0128 28.6209 22.4504C28.6061 22.5976 28.6319 22.746 28.6957 22.8797C29.1282 23.6324 29.4322 24.4259 29.4644 25.2962C29.5258 27.0176 28.486 28.4813 26.767 29.1149C25.6168 29.5387 24.4372 29.592 23.236 29.4106C23.1489 29.4002 23.0672 29.3631 23.0025 29.3043C22.9379 29.2455 22.8934 29.1682 22.8754 29.083C22.677 28.4073 22.5372 27.7294 22.5463 27.1034ZM27.6384 23.1332C26.9534 23.1924 26.2808 23.3506 25.642 23.6026C24.6637 24.0063 23.8866 24.6301 23.5072 25.6445C23.1445 26.6139 23.2458 27.5964 23.5072 28.57C23.526 28.6392 23.6469 28.7223 23.7294 28.7313C24.5071 28.813 25.2814 28.7881 26.0396 28.581C27.7928 28.1012 28.8997 26.7808 28.6894 25.0394C28.6353 24.5598 28.4892 24.0949 28.2589 23.6698C28.2177 23.7536 28.1933 23.7972 28.1744 23.8429C27.7861 24.8065 27.2519 25.7058 26.5902 26.51C26.2352 26.947 25.8488 27.3589 25.4638 27.7702C25.2933 27.9523 25.0885 27.9475 24.9306 27.7979C24.7727 27.6484 24.772 27.4559 24.9306 27.2675C24.9921 27.1983 25.0704 27.1346 25.1277 27.0598C25.6517 26.4041 26.1989 25.7643 26.6888 25.0844C27.1108 24.5027 27.4057 23.847 27.6384 23.1332Z" fill="#F1400B"/>
<path d="M11.9652 22.7113C12.1685 23.3345 12.4082 23.9029 12.5368 24.4957C13.0064 26.6608 12.2055 28.3378 10.2217 29.3661C9.75348 29.6084 9.24336 29.7711 8.74862 29.9602C8.51732 30.0481 8.32934 29.9913 8.18958 29.7649C7.47123 28.5712 7.04007 27.2937 7.04496 25.8936C7.05125 24.3869 7.85067 23.2915 9.35098 22.7951C9.89114 22.6164 10.469 22.5548 11.0281 22.4295C11.1414 22.401 11.2475 22.3496 11.3397 22.2785C11.5955 22.0861 11.8345 21.8693 12.0944 21.6817C12.3041 21.5287 12.5228 21.5661 12.6451 21.744C12.7674 21.922 12.7094 22.1276 12.5095 22.2813C12.3097 22.435 12.1203 22.5908 11.9652 22.7113ZM9.01136 29.0815C12.0595 28.0609 12.4746 25.6568 11.3621 23.3726C10.0288 25.0551 9.38871 26.9939 9.01136 29.0836V29.0815ZM10.4516 23.2292C10.1127 23.3331 9.76606 23.4148 9.43693 23.5436C8.31886 23.9812 7.7731 24.7899 7.7738 25.9795C7.7738 26.7314 7.97366 27.4419 8.24269 28.137C8.27414 28.2187 8.31257 28.297 8.37407 28.4306C8.77098 26.5445 9.37963 24.8176 10.4516 23.2313V23.2292Z" fill="#F1400B"/>
</g>
<defs>
<clipPath id="clip0_879_196">
<rect width="24" height="22" fill="white" transform="translate(6 8)"/>
</clipPath>
</defs>
</svg>
