<svg width="37" height="37" viewBox="0 0 37 37" fill="none" xmlns="http://www.w3.org/2000/svg">
<circle cx="18.5" cy="18.5" r="18.5" fill="white"/>
<g clip-path="url(#clip0_872_174)">
<path d="M30.0021 22.1591C29.818 22.3958 29.6358 22.6331 29.4504 22.8691C29.228 23.1518 29.0096 23.1812 28.7173 22.9663C28.4533 22.7744 28.1966 22.5774 27.9135 22.3651V28.3658H28.7014C28.9944 28.3658 29.1409 28.4694 29.1455 28.6741C29.1495 28.8903 29.007 28.9939 28.6948 28.9939H15.8689C13.5057 28.9939 11.1426 28.9862 8.78013 29.0009C8.31423 29.0009 8.04169 28.7496 8.08063 28.3204C8.10108 28.0933 8.07007 27.8618 8.08921 27.6341C8.10108 27.4889 8.16311 27.3469 8.20007 27.203C8.21812 27.1454 8.22919 27.0859 8.23307 27.0258C8.23966 26.5193 8.46008 26.1362 8.91145 25.8746C8.99359 25.8282 9.05832 25.7576 9.09623 25.6731C9.2592 25.2391 9.56933 24.8715 9.97588 24.6305C10.0104 24.6072 10.0396 24.5771 10.0614 24.5422C10.0832 24.5072 10.0972 24.4683 10.1026 24.4278C10.1087 21.1313 10.1103 17.8348 10.1072 14.5383C10.1072 14.5178 10.1026 14.4973 10.0966 14.4385C9.95938 14.5376 9.8373 14.624 9.7172 14.7129C9.55156 14.8344 9.39186 14.963 9.22161 15.0781C8.99526 15.2316 8.77089 15.1996 8.59601 14.9911C8.44292 14.8082 8.29576 14.6202 8.15058 14.4308C7.92423 14.1379 7.9526 13.9294 8.25022 13.7023C8.89297 13.2154 9.53858 12.7318 10.1871 12.2517C10.2335 12.222 10.271 12.1807 10.2956 12.1323C10.3202 12.0838 10.331 12.0299 10.327 11.976C10.321 11.2686 10.3223 10.5606 10.327 9.85257C10.327 9.73169 10.3118 9.65558 10.1739 9.59673C10.0898 9.56399 10.0179 9.50737 9.96761 9.43432C9.91732 9.36127 9.89099 9.2752 9.89207 9.18739C9.88679 8.95137 9.87888 8.71536 9.89207 8.47999C9.89756 8.35008 9.95509 8.22737 10.0524 8.13792C10.1498 8.04846 10.2793 7.99932 10.4134 8.00093C11.2871 7.99709 12.1606 7.99709 13.0339 8.00093C13.2979 8.00093 13.5308 8.1749 13.5546 8.4333C13.5792 8.70877 13.5735 8.98601 13.5374 9.2603C13.5229 9.37223 13.4199 9.52766 13.3183 9.56539C13.0715 9.65814 13.1164 9.82123 13.1316 10.0336C13.4094 9.82699 13.6628 9.63958 13.9149 9.4509C14.2494 9.20082 14.582 8.94882 14.9166 8.69873C15.3376 8.38469 15.7026 8.38405 16.1256 8.69873C18.3393 10.3579 20.5527 12.0174 22.7656 13.6774C23.1008 13.9287 23.1219 14.095 22.8678 14.4289C22.7405 14.5965 22.6138 14.7641 22.4844 14.9304C22.2627 15.2137 22.0482 15.2438 21.7519 15.0276C21.488 14.8357 21.2339 14.6438 20.9336 14.4174C20.9336 14.6234 20.9369 14.7858 20.9336 14.9483C20.9277 15.1696 20.7924 15.3128 20.6037 15.3084C20.415 15.3039 20.2942 15.1721 20.2902 14.9566C20.285 14.6656 20.2955 14.3739 20.2836 14.0829C20.2806 13.9979 20.244 13.9173 20.1814 13.8578C18.6455 12.6979 17.1068 11.542 15.5653 10.3898C15.5471 10.3807 15.5281 10.3732 15.5085 10.3674C14.9569 10.7806 14.3966 11.1989 13.8377 11.6185C12.8584 12.3528 11.8788 13.0868 10.8991 13.8206C10.8524 13.85 10.8144 13.8908 10.7889 13.9388C10.7634 13.9868 10.7514 14.0405 10.7539 14.0944C10.7579 17.46 10.759 20.8258 10.7572 24.1918V24.3523C10.9499 24.3696 11.1334 24.3766 11.3135 24.4048C11.5726 24.4429 11.8207 24.5326 12.0422 24.6684C12.2637 24.8041 12.4537 24.9829 12.6003 25.1934C12.6775 25.3002 12.7482 25.3399 12.8815 25.3072C12.9782 25.2803 13.0804 25.2777 13.1784 25.2996C13.4021 25.3635 13.5486 25.2932 13.7222 25.1441C14.328 24.6241 15.042 24.5122 15.7831 24.7981C16.4977 25.0738 16.9346 25.6027 17.0369 26.3575C17.0633 26.5596 17.0409 26.7674 17.0409 26.9971H17.2791C17.64 27.0035 17.873 27.2158 17.8803 27.5657C17.8875 27.8266 17.8803 28.0889 17.8803 28.3607H20.312V23.6615C20.312 23.1499 20.51 22.958 21.0379 22.958C22.026 22.958 23.0141 22.958 24.0022 22.958C24.4523 22.958 24.6687 23.1697 24.6694 23.611C24.6694 24.4638 24.6694 25.3166 24.6694 26.1694C24.6707 26.2523 24.6602 26.3349 24.6384 26.415C24.5955 26.5609 24.476 26.6491 24.3322 26.6152C24.2166 26.5794 24.1161 26.5083 24.0458 26.4125C23.9983 26.3485 24.0095 26.2398 24.0095 26.1509C24.0095 25.3833 24.0095 24.6101 24.0095 23.8394V23.6001H20.9957V28.3524H23.9969C23.9969 28.1854 23.9917 28.0211 23.9969 27.8567C24.0062 27.6111 24.1289 27.4729 24.3302 27.4774C24.5315 27.4819 24.6476 27.6162 24.6601 27.8612C24.6634 27.9449 24.6601 28.0281 24.6601 28.1112V28.3524H27.2371C27.2371 28.2884 27.247 28.2193 27.247 28.1522C27.247 26.1187 27.247 24.0854 27.247 22.0523C27.2515 21.9947 27.2403 21.937 27.2146 21.885C27.1889 21.8329 27.1496 21.7883 27.1005 21.7555C25.6148 20.6469 24.132 19.5346 22.652 18.4187C22.5201 18.3196 22.4402 18.317 22.3069 18.4187C20.307 19.9256 18.3039 21.4289 16.2978 22.9286C15.9395 23.1972 15.7481 23.1716 15.4736 22.8224L15.1344 22.3932C14.875 22.0657 14.8975 21.8713 15.2314 21.6206C16.8548 20.4011 18.4797 19.1833 20.1061 17.9672C20.1651 17.9305 20.2127 17.8791 20.2439 17.8182C20.275 17.7574 20.2885 17.6895 20.283 17.6218C20.2704 17.2547 20.2764 16.8863 20.283 16.5185C20.283 16.2838 20.4004 16.1539 20.5958 16.1488C20.7911 16.1437 20.9257 16.2863 20.929 16.5255C20.929 16.7814 20.929 17.0372 20.929 17.3301C21.0062 17.2796 21.061 17.2464 21.1158 17.2073C21.354 17.0302 21.5903 16.8498 21.8285 16.6726C22.3228 16.3055 22.6454 16.3061 23.143 16.679C24.4848 17.6845 25.8266 18.6906 27.1685 19.6973C28.0118 20.3299 28.8565 20.9605 29.6959 21.5982C29.8052 21.6946 29.9065 21.7992 29.9988 21.911L30.0021 22.1591ZM17.1999 27.62H16.9359C15.7336 27.62 14.531 27.62 13.3282 27.62C13.0702 27.62 12.9323 27.5081 12.925 27.3149C12.9177 27.1218 13.0755 26.9951 13.3375 26.9951C13.507 26.9951 13.676 26.9951 13.841 26.9951C13.8946 26.8572 13.9054 26.707 13.8721 26.5631C13.8388 26.4193 13.7629 26.288 13.6535 26.1854C13.418 25.9411 13.1197 25.8765 12.7897 25.9609C12.3799 26.0658 12.3614 26.06 12.1575 25.6916C11.9107 25.2439 11.3736 24.9542 10.9004 25.0066C10.2867 25.0751 9.83004 25.4275 9.69872 25.9737C9.64131 26.2104 9.5311 26.3466 9.28892 26.4214C9.02495 26.5001 8.90089 26.7233 8.92069 26.9971H9.53968C10.2478 26.9971 10.9565 26.9971 11.6652 26.9971C11.8777 26.9971 12.0216 27.1339 12.0223 27.3105C12.0229 27.487 11.887 27.6117 11.6679 27.622C11.6105 27.622 11.5537 27.622 11.4963 27.622H8.74648V28.3549H17.1999V27.62ZM8.9946 14.45C9.04805 14.4116 9.08764 14.3861 9.12658 14.3554L15.1878 9.81036C15.4736 9.59673 15.566 9.59481 15.8477 9.80524C17.4553 11.0111 19.0624 12.2165 20.669 13.4215C21.1244 13.7631 21.5804 14.1034 22.0456 14.4519L22.2878 14.1321C22.2073 14.0682 22.1433 14.0151 22.0766 13.9646L15.8121 9.2667C15.5316 9.05627 15.5092 9.05755 15.2235 9.27245C13.3388 10.6851 11.4543 12.0982 9.57004 13.5117C9.29486 13.7183 9.02099 13.9262 8.74053 14.1373L8.9946 14.45ZM15.9566 22.3811C16.0226 22.3363 16.0747 22.3024 16.1242 22.2647L22.171 17.7318C22.4468 17.5252 22.522 17.5233 22.7926 17.7267L26.7329 20.6804L29.005 22.3836L29.2498 22.0638C29.1838 22.0095 29.1343 21.9685 29.0835 21.9308C26.9665 20.3429 24.8504 18.7539 22.7352 17.1638C22.5458 17.0212 22.4165 17.0276 22.2317 17.167C20.424 18.5315 18.613 19.8909 16.7987 21.2451C16.4384 21.515 16.0787 21.7862 15.7065 22.0664L15.9566 22.3811ZM14.5292 26.9919C15.1232 26.9919 15.69 26.9919 16.2589 26.9862C16.3018 26.9862 16.3697 26.9094 16.3803 26.8583C16.5057 26.2826 16.2048 25.7025 15.6478 25.4236C15.3909 25.2966 15.0984 25.254 14.8144 25.3022C14.5304 25.3505 14.2702 25.4869 14.0732 25.691C14.4375 26.0434 14.5794 26.4777 14.5273 26.9913L14.5292 26.9919ZM10.9855 11.6486C11.4824 11.2757 11.9464 10.9297 12.407 10.5811C12.4242 10.5694 12.439 10.5545 12.4503 10.5372C12.4616 10.52 12.4693 10.5008 12.473 10.4807C12.4783 10.2133 12.473 9.94531 12.473 9.6786H10.9836L10.9855 11.6486ZM10.5447 8.63541V9.02813H12.9039V8.63541H10.5447Z" fill="#F1400B"/>
<path d="M13.3417 15.7671C13.3417 14.9555 13.3516 14.1438 13.3371 13.3328C13.3298 12.9561 13.5351 12.6433 14.0241 12.6536C15.0251 12.6747 16.0275 12.6728 17.0293 12.6536C17.4496 12.6459 17.6978 12.903 17.6951 13.3072C17.6852 14.944 17.6951 16.5801 17.6905 18.2168C17.6905 18.6645 17.478 18.8654 17.0227 18.8654H14.0175C13.5555 18.8654 13.3424 18.6569 13.3417 18.2002C13.3404 17.3896 13.3404 16.5786 13.3417 15.7671ZM15.173 16.9734H14.0227V18.2245H15.173V16.9734ZM17.0207 16.9734H15.8626V18.2226H17.0207V16.9734ZM14.0142 14.5429H15.167V13.304H14.0142V14.5429ZM15.8619 14.5429H17.022V13.3053H15.8606L15.8619 14.5429ZM14.0142 16.3249H15.1763V15.2164H14.0142V16.3249ZM17.0227 15.2126H15.8606V16.3242H17.0207L17.0227 15.2126Z" fill="#F1400B"/>
<path d="M21.1501 25.7902C21.1501 25.6725 21.1442 25.5542 21.1501 25.4371C21.151 25.3564 21.1838 25.2791 21.2418 25.221C21.2997 25.163 21.3783 25.1286 21.4616 25.125C21.5451 25.1241 21.6258 25.1548 21.6864 25.2106C21.747 25.2663 21.7828 25.3428 21.7863 25.4237C21.7968 25.6866 21.7968 25.9507 21.7863 26.2143C21.785 26.2542 21.7753 26.2935 21.7578 26.3296C21.7402 26.3658 21.7152 26.3981 21.6843 26.4246C21.6534 26.451 21.6172 26.471 21.578 26.4833C21.5388 26.4957 21.4973 26.5001 21.4563 26.4963C21.4166 26.4972 21.3772 26.4903 21.3403 26.4761C21.3034 26.4619 21.2698 26.4406 21.2416 26.4136C21.2133 26.3866 21.1909 26.3543 21.1758 26.3188C21.1607 26.2832 21.153 26.2451 21.1534 26.2066C21.1428 26.0684 21.1508 25.929 21.1501 25.7902Z" fill="#F1400B"/>
</g>
<defs>
<clipPath id="clip0_872_174">
<rect width="22" height="21" fill="white" transform="translate(8 8)"/>
</clipPath>
</defs>
</svg>
