<svg width="37" height="37" viewBox="0 0 37 37" fill="none" xmlns="http://www.w3.org/2000/svg">
<circle cx="18.5" cy="18.5" r="18.5" fill="white"/>
<g clip-path="url(#clip0_872_169)">
<path d="M13.5534 24.9858C13.548 24.945 13.5521 24.9035 13.5654 24.8645C13.5787 24.8255 13.6009 24.7901 13.6302 24.7611L13.633 24.7572L13.6396 24.744C13.6506 24.6639 13.6743 24.586 13.7098 24.5132C13.1374 24.5132 12.5652 24.5132 11.9931 24.5132C11.8887 24.5132 11.8556 24.4835 11.8417 24.3805C11.8053 24.1089 11.7533 23.8385 11.7058 23.5542H11.8373C12.5617 23.5542 13.286 23.5542 14.0104 23.5542C14.0325 23.5539 14.0545 23.5561 14.0761 23.5609C14.1067 23.5178 14.1401 23.4768 14.1761 23.438C14.2916 23.3152 14.4839 23.3466 14.5833 23.4595L14.6165 23.4711C14.612 23.4584 14.6076 23.4457 14.6038 23.4331C14.4844 23.0767 14.4844 23.0734 14.1065 23.075C14.0186 23.075 13.9899 23.042 13.9651 22.9649C13.8424 22.5876 13.7142 22.2119 13.5866 21.8357C13.5357 21.6864 13.4623 21.6352 13.307 21.633C13.2583 21.6289 13.2093 21.6289 13.1606 21.633C13.0656 21.6468 13.0258 21.6049 12.9976 21.5179C12.8794 21.1472 12.7539 20.7792 12.6302 20.4108C12.5749 20.2422 12.5042 20.1904 12.3241 20.1904H12.0799C12.065 20.1497 12.0522 20.1161 12.0412 20.0803C11.9141 19.7041 11.7892 19.3273 11.6611 18.9517C11.6097 18.8002 11.539 18.7523 11.3809 18.7506C11.3174 18.7506 11.2544 18.7506 11.1914 18.7506V15.4017C11.3356 15.4017 11.4732 15.4017 11.6108 15.4017C11.8185 15.3973 11.9003 15.3163 11.9009 15.1114C11.9009 14.5059 11.9009 13.9 11.9009 13.2937C11.9009 13.0772 11.8224 12.999 11.6075 12.999H6.42488C6.20388 12.999 6.12597 13.075 6.12542 13.3003C6.12542 13.8974 6.12542 14.4945 6.12542 15.0916C6.12542 15.3201 6.20333 15.3973 6.43428 15.3995C6.56688 15.3995 6.70003 15.3995 6.83595 15.3995V18.7534H6.72545C6.45969 18.7534 6.42378 18.7803 6.33869 19.0288C6.23298 19.3431 6.12782 19.658 6.02321 19.9734C5.95027 20.1904 5.95027 20.1904 5.71988 20.1937C5.51544 20.1937 5.45467 20.2373 5.38837 20.4295C5.28007 20.7519 5.17196 21.0743 5.06404 21.3967C4.98503 21.6319 4.98448 21.6314 4.73585 21.633C4.55683 21.633 4.48887 21.6815 4.43141 21.8533C4.3187 22.1868 4.20691 22.5207 4.09603 22.8553C4.02365 23.0717 4.02421 23.0723 3.79049 23.0756C3.58882 23.0756 3.52584 23.1219 3.45898 23.3135C3.31422 23.7437 3.17554 24.1756 3.0236 24.603C2.93409 24.8547 3.06228 25.0034 3.31367 25.0029C6.7249 24.9981 10.1361 24.9981 13.5474 25.0029L13.5534 24.9858ZM11.3097 19.4364C11.392 19.6848 11.4754 19.9321 11.56 20.1893H11.1428C11.0909 19.8776 11.0389 19.5686 10.987 19.2585C10.9996 19.2519 11.013 19.2469 11.0268 19.2436C11.2401 19.2304 11.2401 19.2309 11.3097 19.4347V19.4364ZM6.61661 14.9059V13.4937H11.4058V13.9552H7.43654C7.39952 13.9552 7.36305 13.9552 7.32603 13.9552C7.26231 13.957 7.20168 13.983 7.15651 14.0278C7.11133 14.0726 7.08501 14.133 7.08293 14.1965C7.08298 14.229 7.08962 14.2613 7.10246 14.2912C7.1153 14.3211 7.13407 14.3482 7.15765 14.3707C7.18123 14.3932 7.20913 14.4108 7.23968 14.4223C7.27023 14.4338 7.3028 14.4391 7.33543 14.4377C7.56748 14.4411 7.80009 14.4377 8.03215 14.4377H11.4058V14.9059H6.61661ZM10.2157 16.2064C10.2157 15.9486 10.1461 15.8792 9.89191 15.8792H8.13215C7.878 15.8792 7.80893 15.9492 7.80893 16.2064C7.80893 17.0025 7.80893 17.7986 7.80893 18.5947V18.7473H7.33488V15.4127H10.6947V18.7462H10.2162V16.2059L10.2157 16.2064ZM7.93822 22.5854C7.96308 22.4333 7.98795 22.283 8.01336 22.1249H10.0102L10.0875 22.5854H7.93822ZM10.193 23.2089C10.2047 23.3246 10.2231 23.4396 10.2483 23.5531H7.77965C7.80175 23.4105 7.81722 23.2717 7.84871 23.1362C7.85424 23.1108 7.92275 23.0849 7.96308 23.0844C8.28852 23.08 8.6145 23.0844 8.93993 23.0844C9.30625 23.0844 9.67312 23.0844 10.0394 23.0844C10.135 23.0778 10.1903 23.0965 10.193 23.2083V23.2089ZM8.30178 18.7473V16.3678H9.72284V18.7473H8.30178ZM9.60737 19.7052H8.42222C8.44819 19.5482 8.4725 19.3989 8.49792 19.2452H9.52725C9.55212 19.3923 9.57809 19.541 9.60737 19.7063V19.7052ZM8.33659 20.2042H9.68969C9.71566 20.3562 9.74495 20.5105 9.76926 20.6713H8.25647C8.28299 20.5154 8.30841 20.3645 8.33493 20.2053L8.33659 20.2042ZM9.77699 21.1637C9.7947 21.1664 9.81149 21.1733 9.82592 21.1838C9.84036 21.1944 9.85201 21.2083 9.85987 21.2243C9.8875 21.3537 9.90462 21.4859 9.92617 21.6253H8.10287C8.12497 21.4854 8.14155 21.3537 8.16917 21.2238C8.1771 21.2078 8.18878 21.194 8.20321 21.1836C8.21764 21.1731 8.2344 21.1663 8.25205 21.1637C8.75889 21.1611 9.26665 21.1615 9.77533 21.1648L9.77699 21.1637ZM6.76689 19.291C6.77551 19.2771 6.78713 19.2653 6.80089 19.2564C6.81465 19.2476 6.83021 19.2419 6.84645 19.2397C6.91122 19.2358 6.97617 19.2358 7.04094 19.2397L6.88347 20.1866H6.46577C6.56633 19.8809 6.66302 19.5878 6.76468 19.2937L6.76689 19.291ZM6.17128 24.435C6.16495 24.4534 6.15418 24.4699 6.13992 24.4832C6.12566 24.4964 6.10835 24.506 6.08951 24.511C5.2635 24.5143 4.43749 24.511 3.61148 24.511C3.60429 24.511 3.59766 24.5038 3.58054 24.4939C3.67833 24.202 3.77557 23.9068 3.87834 23.6126C3.88573 23.5977 3.89672 23.5849 3.91032 23.5753C3.92391 23.5657 3.9397 23.5596 3.95625 23.5575C4.73695 23.5575 5.51821 23.5575 6.31714 23.5575C6.26742 23.8577 6.22322 24.1453 6.17128 24.435ZM6.39947 23.0701H4.54081C4.5828 22.9395 4.62203 22.815 4.66291 22.6911C4.71817 22.5259 4.77342 22.3606 4.83254 22.1954C4.84009 22.1772 4.85174 22.161 4.86659 22.148C4.88144 22.135 4.89909 22.1256 4.91818 22.1205C5.45854 22.1161 5.99945 22.1172 6.55915 22.1172C6.50445 22.4444 6.45196 22.755 6.39947 23.0673V23.0701ZM5.50108 21.6258L5.63037 21.2403C5.68562 21.0789 5.73369 20.9164 5.79225 20.7567C5.80386 20.7242 5.84751 20.6801 5.87513 20.6795C6.1757 20.674 6.47627 20.6757 6.79949 20.6757C6.74424 21.0029 6.69285 21.313 6.64036 21.6253L5.50108 21.6258ZM6.65473 24.5022C6.69451 24.2576 6.73208 24.0224 6.77131 23.7861C6.9227 22.8791 7.07446 21.9719 7.22658 21.0646C7.32438 20.4807 7.42107 19.8974 7.52218 19.3141C7.52715 19.2854 7.56472 19.2414 7.58958 19.2403C7.72274 19.2326 7.85645 19.2364 8.00286 19.2364L7.12326 24.5005L6.65473 24.5022ZM7.61555 24.5022C7.64207 24.3458 7.66749 24.1987 7.69346 24.0456H10.3312L10.4085 24.5022H7.61555ZM10.9014 24.5022C10.608 22.749 10.3157 21.0001 10.0212 19.2381C10.1676 19.2381 10.3019 19.2342 10.435 19.2419C10.4593 19.2419 10.4975 19.2871 10.5024 19.3163C10.603 19.899 10.7013 20.4824 10.7975 21.0662C10.9496 21.9732 11.1014 22.8806 11.2528 23.7883C11.292 24.023 11.3296 24.2576 11.3693 24.5044L10.9014 24.5022ZM11.2262 20.6862H12.2103L12.5224 21.6225H11.3843C11.3323 21.319 11.2798 21.0095 11.2262 20.6895V20.6862ZM11.4649 22.1144C12.0241 22.1144 12.5611 22.1144 13.0982 22.1144C13.1162 22.116 13.1336 22.1218 13.149 22.1313C13.1644 22.1409 13.1773 22.154 13.1866 22.1695C13.2888 22.4631 13.3849 22.7589 13.4855 23.0618H11.6268C11.5716 22.7567 11.5202 22.4444 11.4649 22.1166V22.1144Z" fill="#F1400B"/>
<path d="M16.9098 18.7557V15.4024C16.7739 15.4024 16.6407 15.4024 16.5081 15.4024C16.2772 15.4024 16.1998 15.3231 16.1993 15.0945C16.1993 14.4974 16.1993 13.9003 16.1993 13.3032C16.1993 13.078 16.2755 13.002 16.4988 13.002H21.6824C21.8974 13.002 21.9753 13.0802 21.9758 13.2966C21.9758 13.9022 21.9758 14.5081 21.9758 15.1143C21.9758 15.3192 21.8935 15.4002 21.6858 15.4046C21.5482 15.4046 21.4095 15.4046 21.2664 15.4046V18.7585C21.3294 18.7585 21.3924 18.7585 21.4559 18.7585C21.6139 18.7585 21.6847 18.8081 21.736 18.9595C21.8637 19.3352 21.9891 19.7119 22.1156 20.0882C22.1272 20.1223 22.1399 20.1559 22.1548 20.1983H22.4007C22.5808 20.1983 22.6505 20.2484 22.7068 20.4186C22.8306 20.7871 22.956 21.1551 23.0742 21.5258C23.1024 21.6128 23.1422 21.6547 23.2372 21.6409C23.2859 21.6368 23.3349 21.6368 23.3836 21.6409C23.5389 21.6409 23.6124 21.696 23.6632 21.8436C23.7908 22.2198 23.919 22.5954 24.0417 22.9728C24.0665 23.0488 24.0969 23.0829 24.1831 23.0829C24.5622 23.0829 24.5622 23.0829 24.6804 23.4409C24.8102 23.8265 24.9323 24.2192 25.0716 24.6037C25.1622 24.8543 25.0362 25.0086 24.7865 25.008C20.9896 25.0025 17.1923 25.0025 13.3947 25.008C13.1433 25.008 13.0151 24.8598 13.1047 24.6081C13.2566 24.1807 13.3953 23.7489 13.5395 23.3187C13.6041 23.127 13.6671 23.0813 13.871 23.0807C14.1053 23.0807 14.1047 23.0807 14.1771 22.8604C14.2876 22.5259 14.3994 22.1919 14.5125 21.8585C14.5677 21.6872 14.6379 21.6381 14.8169 21.6381C15.0655 21.6381 15.0661 21.6381 15.1451 21.4018C15.2534 21.0798 15.3615 20.7574 15.4694 20.4346C15.5341 20.2424 15.5948 20.1994 15.8009 20.1989C16.0313 20.1989 16.0313 20.1989 16.1043 19.9785C16.2092 19.6635 16.3144 19.3486 16.4197 19.0339C16.5032 18.7844 16.5391 18.7585 16.8065 18.7585L16.9098 18.7557ZM16.6916 14.9061H21.4824V14.4401H18.1082C17.8756 14.4401 17.6436 14.4401 17.4115 14.4401C17.3789 14.4415 17.3463 14.4362 17.3158 14.4247C17.2852 14.4132 17.2573 14.3956 17.2337 14.3731C17.2102 14.3506 17.1914 14.3235 17.1785 14.2936C17.1657 14.2636 17.1591 14.2314 17.159 14.1989C17.1611 14.1354 17.1874 14.075 17.2326 14.0302C17.2778 13.9854 17.3384 13.9594 17.4021 13.9576C17.4386 13.9576 17.475 13.9576 17.5126 13.9576H21.4819V13.496H16.6921L16.6916 14.9061ZM20.7691 15.4129H17.4093V18.7475H17.8834V16.2066C17.8834 15.9493 17.953 15.8794 18.2071 15.8794H19.9697C20.2238 15.8794 20.2934 15.9488 20.2934 16.2066V18.7464H20.7719L20.7691 15.4129ZM18.3762 18.7491H19.7978V16.3696H18.3762V18.7491ZM17.1982 24.5051L18.0778 19.241C17.9314 19.241 17.7977 19.2371 17.6646 19.2449C17.6397 19.2449 17.6021 19.29 17.5972 19.3187C17.496 19.902 17.3994 20.4853 17.3016 21.0691C17.1498 21.9762 16.998 22.8833 16.8463 23.7907C16.8071 24.0254 16.7695 24.2606 16.7297 24.5068L17.1982 24.5051ZM20.0962 19.241C20.3907 21.0036 20.6829 22.7519 20.9763 24.5051H21.4443C21.4045 24.2606 21.367 24.0259 21.3277 23.7891C21.1763 22.8813 21.0246 21.9739 20.8725 21.0669C20.7752 20.4835 20.6769 19.9001 20.5774 19.317C20.5719 19.2878 20.5343 19.2438 20.51 19.2427C20.3769 19.2371 20.2426 19.241 20.0962 19.241ZM16.3943 23.5566C15.5948 23.5566 14.8141 23.5566 14.0334 23.5566C14.0168 23.5587 14.001 23.5648 13.9873 23.5744C13.9736 23.584 13.9625 23.5968 13.955 23.6117C13.8528 23.9047 13.7555 24.2 13.6577 24.493C13.6749 24.5029 13.6815 24.5101 13.6887 24.5101C14.5174 24.5101 15.3407 24.5134 16.1667 24.5101C16.1855 24.5051 16.2028 24.4955 16.2171 24.4823C16.2314 24.469 16.2421 24.4524 16.2485 24.4341C16.2982 24.146 16.3429 23.8585 16.3921 23.5544L16.3943 23.5566ZM24.5207 24.5123C24.5069 24.4572 24.4986 24.4214 24.4865 24.3839C24.4069 24.146 24.3235 23.9097 24.2494 23.6679C24.2224 23.5798 24.1809 23.5517 24.0875 23.5522C23.3632 23.5566 22.6389 23.5522 21.9145 23.5522H21.783C21.8305 23.8359 21.8825 24.1063 21.9189 24.3784C21.9327 24.4814 21.9659 24.5117 22.0703 24.5112C22.8438 24.5062 23.6174 24.5112 24.3909 24.5112L24.5207 24.5123ZM16.6363 22.1173C16.0766 22.1173 15.5357 22.1173 14.9954 22.1206C14.9763 22.1257 14.9586 22.1352 14.9438 22.1481C14.9289 22.1611 14.9173 22.1774 14.9097 22.1956C14.8484 22.3608 14.7954 22.526 14.7401 22.6913C14.6992 22.8152 14.66 22.9397 14.618 23.0702H16.4767L16.6363 22.1173ZM21.5421 22.1173C21.5974 22.4451 21.6498 22.7574 21.7023 23.0681H23.561C23.4604 22.7651 23.3643 22.4693 23.2621 22.1757C23.2528 22.1602 23.2399 22.1471 23.2245 22.1376C23.2092 22.128 23.1917 22.1222 23.1737 22.1206C22.6361 22.1168 22.099 22.1173 21.5399 22.1173H21.5421ZM20.4078 24.0452H17.7706C17.7441 24.1983 17.7193 24.3454 17.6927 24.5018H20.4857C20.457 24.3481 20.4321 24.2011 20.4056 24.0501L20.4078 24.0452ZM20.3249 23.5495C20.2997 23.4359 20.2813 23.3209 20.2697 23.2052C20.2647 23.095 20.2144 23.0752 20.1155 23.0763C19.7492 23.0813 19.3823 23.0763 19.016 23.0763C18.6906 23.0763 18.3646 23.0763 18.0392 23.0763C17.9988 23.0763 17.9287 23.1027 17.9248 23.1281C17.8933 23.2636 17.8778 23.4035 17.8557 23.545L20.3249 23.5495ZM20.0873 22.1212H18.0911L18.016 22.5817H20.1652L20.0873 22.1212ZM16.8756 20.6792C16.5523 20.6792 16.2518 20.6792 15.9512 20.683C15.9219 20.683 15.8799 20.7276 15.8683 20.7601C15.8098 20.9199 15.7578 21.0824 15.7064 21.2438L15.5772 21.6293H16.7164C16.7678 21.3165 16.8203 21.0064 16.8756 20.6792ZM22.2863 20.6891H21.3018C21.357 21.0102 21.4084 21.3198 21.4603 21.6255H22.5985L22.2863 20.6891ZM20.0006 21.6255C19.979 21.4861 19.9619 21.3539 19.9343 21.2245C19.9264 21.2084 19.9148 21.1945 19.9003 21.184C19.8859 21.1734 19.8691 21.1665 19.8514 21.1639C19.3427 21.1606 18.8339 21.1606 18.3248 21.1639C18.3072 21.1665 18.2904 21.1733 18.276 21.1838C18.2615 21.1942 18.2499 21.208 18.2419 21.2239C18.2143 21.3539 18.1977 21.4856 18.1756 21.6255H20.0006ZM18.3331 20.6715H19.8437C19.8166 20.5106 19.7884 20.3564 19.7641 20.2044H18.411L18.3331 20.6715ZM19.6834 19.7053C19.6542 19.5401 19.6282 19.3914 19.6022 19.2454H18.5712L18.4955 19.7053H19.6834ZM16.5402 20.1862H16.9579L17.1154 19.2394C17.0506 19.2354 16.9856 19.2354 16.9209 19.2394C16.9046 19.2415 16.8891 19.2472 16.8753 19.256C16.8615 19.2649 16.8499 19.2767 16.8413 19.2906C16.738 19.5886 16.6413 19.8816 16.5391 20.1878L16.5402 20.1862ZM21.2189 20.1862H21.636C21.5504 19.9295 21.4703 19.6817 21.3857 19.4332C21.3183 19.2294 21.3183 19.2289 21.1029 19.2405C21.089 19.2438 21.0757 19.2488 21.0631 19.2553C21.1139 19.5676 21.1658 19.8766 21.2178 20.1884L21.2189 20.1862Z" fill="#F1400B"/>
<path d="M24.2383 24.8828C24.251 24.9186 24.2637 24.9577 24.2764 24.999H24.2847C24.2383 24.8453 24.1869 24.6939 24.1333 24.5462C24.1289 24.5336 24.1239 24.5215 24.1195 24.5088H24.0869C24.1438 24.63 24.193 24.7561 24.2383 24.8828Z" fill="#F1400B"/>
<path d="M34.9702 24.5953C34.831 24.2097 34.7089 23.8203 34.579 23.4325C34.4597 23.0761 34.4597 23.0728 34.0818 23.0745C33.9939 23.0745 33.9652 23.0414 33.9403 22.9643C33.8177 22.587 33.6895 22.2114 33.5619 21.8352C33.511 21.6859 33.4375 21.6347 33.2823 21.6325C33.2336 21.6283 33.1846 21.6283 33.1359 21.6325C33.0408 21.6462 33.0011 21.6044 32.9701 21.5173C32.8519 21.1466 32.7265 20.7787 32.6027 20.4102C32.5474 20.2417 32.4767 20.1899 32.2966 20.1899H32.0518C32.0375 20.1491 32.0248 20.1155 32.0132 20.0797C31.8866 19.7035 31.7612 19.3268 31.6336 18.9511C31.5822 18.7996 31.5115 18.7517 31.3535 18.7501C31.2899 18.7501 31.2269 18.7501 31.1639 18.7501V15.4017C31.3082 15.4017 31.4457 15.4017 31.5833 15.4017C31.791 15.3973 31.8728 15.3163 31.8734 15.1114C31.8734 14.5059 31.8734 13.9 31.8734 13.2937C31.8734 13.0772 31.7949 12.999 31.58 12.999H26.3974C26.1764 12.999 26.0985 13.075 26.0979 13.3003C26.0979 13.8974 26.0979 14.4945 26.0979 15.0916C26.0979 15.3201 26.1758 15.3973 26.4068 15.3995C26.5394 15.3995 26.6726 15.3995 26.8085 15.3995V18.7534H26.698C26.4322 18.7534 26.3963 18.7803 26.3112 19.0288C26.2055 19.3431 26.1001 19.658 25.9952 19.9734C25.9228 20.1904 25.9228 20.1904 25.6924 20.1937C25.488 20.1937 25.4272 20.2373 25.3609 20.4295C25.2526 20.7519 25.1445 21.0743 25.0366 21.3967C24.9575 21.6319 24.957 21.6314 24.7084 21.633C24.5293 21.633 24.4614 21.6815 24.4039 21.8533C24.2912 22.1868 24.1794 22.5207 24.0685 22.8553C24.0535 22.9109 24.0318 22.9645 24.0039 23.015C24.1178 23.1894 24.2206 23.3708 24.3117 23.5581C24.9647 23.5581 25.62 23.5581 26.288 23.5581C26.2388 23.8599 26.1941 24.1475 26.1421 24.4344C26.1358 24.4528 26.125 24.4694 26.1108 24.4826C26.0965 24.4959 26.0792 24.5054 26.0604 24.5105C25.6073 24.5105 25.1541 24.5105 24.7006 24.5105C24.7559 24.6702 24.8111 24.8332 24.8548 24.999C28.1301 24.995 31.4054 24.995 34.6807 24.999C34.9349 25.0001 35.0608 24.8459 34.9702 24.5953ZM31.2849 19.4347C31.3673 19.6831 31.4507 19.9304 31.5352 20.1877H31.1181C31.0662 19.8759 31.0142 19.5669 30.9623 19.2568C30.9749 19.2503 30.9882 19.2453 31.0021 19.2419C31.2175 19.2304 31.2175 19.2309 31.2849 19.4347ZM26.5919 14.9059V13.4937H31.3816V13.9552H27.4124C27.3754 13.9552 27.3389 13.9552 27.3019 13.9552C27.2381 13.957 27.1775 13.983 27.1323 14.0278C27.0872 14.0726 27.0608 14.133 27.0588 14.1965C27.0588 14.229 27.0654 14.2613 27.0783 14.2912C27.0911 14.3211 27.1099 14.3482 27.1335 14.3707C27.1571 14.3932 27.185 14.4108 27.2155 14.4223C27.2461 14.4338 27.2786 14.4391 27.3113 14.4377C27.5433 14.4411 27.7754 14.4377 28.008 14.4377H31.3822V14.9059H26.5919ZM30.1915 16.2059C30.1915 15.9481 30.1219 15.8787 29.8677 15.8787H28.108C27.8538 15.8787 27.7848 15.9486 27.7842 16.2059V18.7467H27.3102V15.4121H30.67V18.7456H30.1915V16.2059ZM27.9141 22.5848C27.9389 22.4328 27.9632 22.2824 27.9892 22.1243H29.986L30.0633 22.5848H27.9141ZM30.1689 23.2083C30.1805 23.3241 30.1989 23.439 30.2241 23.5526H27.7555C27.7776 23.4099 27.7931 23.2711 27.8245 23.1356C27.8301 23.1103 27.8986 23.0844 27.9384 23.0838C28.2643 23.0794 28.5898 23.0838 28.9158 23.0838C29.2821 23.0838 29.6484 23.0838 30.0153 23.0838C30.1125 23.0778 30.1633 23.0965 30.1683 23.2083H30.1689ZM28.2771 18.7467V16.3672H29.6987V18.7467H28.2771ZM29.5832 19.7046H28.3953C28.4213 19.5476 28.4456 19.3984 28.471 19.2447H29.502C29.5285 19.3923 29.5534 19.541 29.5838 19.7063L29.5832 19.7046ZM28.3124 20.2037H29.6655C29.6915 20.3557 29.7175 20.5099 29.7451 20.6707H28.2345C28.2577 20.5154 28.2837 20.3645 28.313 20.2053L28.3124 20.2037ZM29.7528 21.1632C29.7705 21.1658 29.7873 21.1727 29.8018 21.1833C29.8162 21.1938 29.8278 21.2077 29.8357 21.2238C29.8633 21.3532 29.8805 21.4854 29.902 21.6247H28.0787C28.1008 21.4848 28.1174 21.3532 28.145 21.2232C28.1529 21.2073 28.1646 21.1935 28.179 21.183C28.1935 21.1726 28.2102 21.1658 28.2279 21.1632C28.7344 21.161 29.2416 21.1615 29.7495 21.1648L29.7528 21.1632ZM26.7427 19.2904C26.7513 19.2765 26.763 19.2647 26.7767 19.2559C26.7905 19.247 26.806 19.2413 26.8223 19.2392C26.8871 19.2352 26.952 19.2352 27.0168 19.2392L26.8593 20.186H26.4416C26.5416 19.8809 26.6383 19.5878 26.7405 19.2937L26.7427 19.2904ZM26.377 23.064H24.5183C24.5603 22.9335 24.5995 22.809 24.6404 22.6851C24.6957 22.5198 24.7509 22.3546 24.81 22.1893C24.8176 22.1711 24.8292 22.1549 24.8441 22.1419C24.8589 22.1289 24.8766 22.1195 24.8957 22.1144C25.436 22.11 25.9769 22.1111 26.5366 22.1111C26.4792 22.4444 26.4272 22.755 26.3747 23.0673L26.377 23.064ZM25.4764 21.6258L25.6056 21.2403C25.6609 21.0789 25.709 20.9164 25.7675 20.7567C25.7791 20.7242 25.8228 20.6801 25.8504 20.6795C26.151 20.674 26.4515 20.6757 26.7748 20.6757C26.7195 21.0029 26.6681 21.313 26.6156 21.6253L25.4764 21.6258ZM26.63 24.5022C26.6698 24.2576 26.7074 24.0224 26.7466 23.7861C26.898 22.8791 27.0497 21.9719 27.2019 21.0646C27.2997 20.4807 27.3963 19.8974 27.4975 19.3141C27.5024 19.2854 27.54 19.2414 27.5649 19.2403C27.698 19.2326 27.8317 19.2364 27.9781 19.2364L27.0974 24.5044L26.63 24.5022ZM27.5908 24.5022C27.6174 24.3458 27.6422 24.1987 27.6687 24.0456H30.3059C30.3324 24.1987 30.3573 24.3458 30.3838 24.5022H27.5908ZM30.8766 24.5022C30.5833 22.749 30.291 21.0001 29.9965 19.2381C30.1429 19.2381 30.2772 19.2342 30.4103 19.2419C30.4346 19.2419 30.4722 19.2871 30.4772 19.3163C30.5783 19.899 30.675 20.4829 30.7728 21.0662C30.9249 21.9732 31.0766 22.8806 31.228 23.7883C31.2673 24.023 31.3048 24.2576 31.3446 24.5044L30.8766 24.5022ZM31.201 20.6862H32.1855L32.4977 21.6225H31.3595C31.3076 21.319 31.2551 21.0095 31.201 20.6895V20.6862ZM31.4402 22.1144C31.9993 22.1144 32.5364 22.1144 33.0734 22.1144C33.0915 22.116 33.1089 22.1218 33.1243 22.1313C33.1397 22.1409 33.1525 22.154 33.1618 22.1695C33.2641 22.4631 33.3602 22.7589 33.4607 23.0618H31.6004C31.5479 22.7567 31.4955 22.4444 31.4402 22.1166V22.1144ZM34.2879 24.5093C33.5143 24.5093 32.7408 24.5093 31.9673 24.5093C31.8629 24.5093 31.8297 24.4796 31.8159 24.3766C31.7794 24.1051 31.7275 23.8346 31.68 23.5504H31.8115C32.5358 23.5504 33.2602 23.5504 33.9845 23.5504C34.0779 23.5504 34.1193 23.5779 34.1464 23.6661C34.2205 23.9057 34.3039 24.142 34.3829 24.3821C34.3956 24.4196 34.4039 24.4581 34.4177 24.5105L34.2879 24.5093Z" fill="#F1400B"/>
<path d="M23.0466 24.4736C23.0323 24.5155 23.0179 24.5579 23.003 24.5998C22.935 24.7909 22.993 24.9231 23.1356 24.9749C23.0822 24.8129 23.0522 24.6441 23.0466 24.4736Z" fill="#F1400B"/>
</g>
<defs>
<clipPath id="clip0_872_169">
<rect width="32" height="12" fill="white" transform="translate(3 13)"/>
</clipPath>
</defs>
</svg>
